<?xml version="1.0" encoding="UTF-8"?>
<svg xmlns="http://www.w3.org/2000/svg" xmlns:xlink="http://www.w3.org/1999/xlink" width="200px" height="101px" viewBox="0 0 200 101" version="1.1">
<defs>
<linearGradient id="linear0" gradientUnits="userSpaceOnUse" x1="723.424" y1="-83.7523" x2="-118.254" y2="661.681" gradientTransform="matrix(0.176523,0,0,0.175958,0,0)">
<stop offset="0.226208" style="stop-color:rgb(27.843137%,30.588235%,97.254902%);stop-opacity:1;"/>
<stop offset="0.394047" style="stop-color:rgb(42.745098%,80.392157%,100%);stop-opacity:1;"/>
<stop offset="0.589968" style="stop-color:rgb(45.490196%,73.72549%,35.686275%);stop-opacity:1;"/>
<stop offset="0.75012" style="stop-color:rgb(97.254902%,81.568627%,27.843137%);stop-opacity:1;"/>
</linearGradient>
</defs>
<g id="surface1">
<path style=" stroke:none;fill-rule:nonzero;fill:rgb(20%,20%,20%);fill-opacity:1;" d="M 154.234375 39.96875 L 155.03125 39.96875 L 153.972656 35.613281 L 153.574219 36.757812 Z M 152.117188 39.363281 L 152.382812 40.242188 L 154.058594 37.023438 L 153.972656 35.613281 Z M 152.382812 40.242188 L 152.648438 39.363281 L 150.820312 35.613281 L 150.730469 37.023438 Z M 149.761719 39.96875 L 150.554688 39.96875 L 151.21875 36.757812 L 150.820312 35.613281 Z M 149.761719 39.96875 "/>
<path style=" stroke:none;fill-rule:nonzero;fill:rgb(20%,20%,20%);fill-opacity:1;" d="M 155.386719 37.945312 C 155.386719 38.351562 155.480469 38.714844 155.660156 39.039062 C 155.847656 39.355469 156.101562 39.601562 156.421875 39.785156 C 156.738281 39.96875 157.09375 40.058594 157.488281 40.058594 C 157.886719 40.058594 158.242188 39.96875 158.554688 39.785156 C 158.875 39.601562 159.125 39.355469 159.304688 39.039062 C 159.496094 38.714844 159.589844 38.351562 159.589844 37.945312 C 159.589844 37.535156 159.496094 37.171875 159.304688 36.855469 C 159.125 36.539062 158.875 36.289062 158.554688 36.109375 C 158.242188 35.925781 157.886719 35.835938 157.488281 35.835938 C 157.09375 35.835938 156.738281 35.925781 156.421875 36.109375 C 156.101562 36.289062 155.847656 36.539062 155.660156 36.855469 C 155.480469 37.171875 155.386719 37.535156 155.386719 37.945312 Z M 156.101562 37.945312 C 156.101562 37.664062 156.160156 37.414062 156.277344 37.199219 C 156.402344 36.976562 156.566406 36.800781 156.773438 36.679688 C 156.984375 36.554688 157.222656 36.496094 157.488281 36.496094 C 157.753906 36.496094 157.988281 36.554688 158.195312 36.679688 C 158.40625 36.800781 158.570312 36.976562 158.6875 37.199219 C 158.8125 37.414062 158.875 37.664062 158.875 37.945312 C 158.875 38.226562 158.8125 38.476562 158.6875 38.695312 C 158.570312 38.910156 158.40625 39.085938 158.195312 39.214844 C 157.988281 39.335938 157.753906 39.398438 157.488281 39.398438 C 157.222656 39.398438 156.984375 39.335938 156.773438 39.214844 C 156.566406 39.085938 156.402344 38.910156 156.277344 38.695312 C 156.160156 38.476562 156.101562 38.226562 156.101562 37.945312 Z M 156.101562 37.945312 "/>
<path style=" stroke:none;fill-rule:nonzero;fill:rgb(20%,20%,20%);fill-opacity:1;" d="M 162.304688 36.496094 C 162.570312 36.496094 162.804688 36.554688 163.011719 36.679688 C 163.222656 36.800781 163.390625 36.976562 163.507812 37.199219 C 163.628906 37.414062 163.691406 37.664062 163.691406 37.945312 C 163.691406 38.226562 163.628906 38.476562 163.507812 38.695312 C 163.390625 38.910156 163.222656 39.085938 163.011719 39.214844 C 162.804688 39.335938 162.570312 39.398438 162.304688 39.398438 C 162.042969 39.398438 161.804688 39.335938 161.589844 39.214844 C 161.386719 39.085938 161.21875 38.910156 161.097656 38.695312 C 160.972656 38.476562 160.910156 38.226562 160.910156 37.945312 L 160.207031 37.417969 C 160.207031 38 160.296875 38.484375 160.480469 38.878906 C 160.667969 39.273438 160.921875 39.566406 161.238281 39.769531 C 161.554688 39.960938 161.910156 40.058594 162.304688 40.058594 C 162.707031 40.058594 163.0625 39.96875 163.375 39.785156 C 163.691406 39.601562 163.941406 39.355469 164.125 39.039062 C 164.3125 38.714844 164.40625 38.351562 164.40625 37.945312 C 164.40625 37.535156 164.3125 37.171875 164.125 36.855469 C 163.941406 36.539062 163.691406 36.289062 163.375 36.109375 C 163.0625 35.925781 162.707031 35.835938 162.304688 35.835938 Z M 160.59375 37.945312 L 160.910156 37.945312 C 160.910156 37.710938 160.953125 37.507812 161.035156 37.332031 C 161.125 37.148438 161.234375 36.996094 161.371094 36.875 C 161.511719 36.75 161.664062 36.65625 161.828125 36.589844 C 161.996094 36.527344 162.152344 36.496094 162.304688 36.496094 L 162.304688 35.835938 C 162.054688 35.835938 161.820312 35.886719 161.609375 35.984375 C 161.402344 36.078125 161.222656 36.214844 161.070312 36.398438 C 160.917969 36.578125 160.800781 36.800781 160.71875 37.066406 C 160.636719 37.324219 160.59375 37.617188 160.59375 37.945312 Z M 160.207031 37.417969 L 160.824219 37.886719 L 160.824219 36.980469 C 160.824219 36.757812 160.84375 36.53125 160.886719 36.308594 C 160.925781 36.085938 160.996094 35.875 161.097656 35.675781 C 161.203125 35.476562 161.34375 35.296875 161.519531 35.140625 C 161.703125 34.980469 161.933594 34.859375 162.210938 34.769531 C 162.53125 34.664062 162.820312 34.53125 163.074219 34.375 C 163.332031 34.214844 163.542969 34.03125 163.699219 33.820312 C 163.859375 33.601562 163.953125 33.367188 163.984375 33.109375 L 163.285156 33.109375 C 163.246094 33.320312 163.125 33.519531 162.925781 33.714844 C 162.730469 33.902344 162.433594 34.0625 162.03125 34.199219 C 161.679688 34.320312 161.386719 34.484375 161.148438 34.683594 C 160.914062 34.875 160.726562 35.109375 160.585938 35.378906 C 160.449219 35.648438 160.351562 35.953125 160.292969 36.292969 C 160.234375 36.632812 160.207031 37.007812 160.207031 37.417969 Z M 160.207031 37.417969 "/>
<path style=" stroke:none;fill-rule:nonzero;fill:rgb(20%,20%,20%);fill-opacity:1;" d="M 168.773438 36.625 L 168.820312 35.613281 L 165.464844 39.265625 L 165.421875 40.277344 Z M 166.125 35.921875 L 165.421875 35.921875 L 165.421875 40.277344 L 166.125 39.308594 Z M 168.820312 35.613281 L 168.113281 36.582031 L 168.113281 39.96875 L 168.820312 39.96875 Z M 168.820312 35.613281 "/>
<path style=" stroke:none;fill-rule:nonzero;fill:rgb(20%,20%,20%);fill-opacity:1;" d="M 173.742188 35.921875 L 170.257812 35.921875 L 170.257812 38.5625 C 170.257812 38.851562 170.191406 39.050781 170.0625 39.160156 C 169.9375 39.273438 169.789062 39.328125 169.613281 39.328125 L 169.613281 39.96875 C 169.917969 39.96875 170.171875 39.921875 170.371094 39.820312 C 170.570312 39.714844 170.71875 39.558594 170.8125 39.355469 C 170.914062 39.144531 170.964844 38.878906 170.964844 38.5625 L 170.964844 36.582031 L 173.035156 36.582031 L 173.035156 39.96875 L 173.742188 39.96875 Z M 173.742188 35.921875 "/>
<path style=" stroke:none;fill-rule:nonzero;fill:rgb(20%,20%,20%);fill-opacity:1;" d="M 175.109375 35.921875 L 175.109375 39.96875 L 175.8125 39.96875 L 175.8125 35.921875 Z M 175.523438 38.070312 L 176.785156 38.070312 C 176.953125 38.070312 177.097656 38.097656 177.210938 38.148438 C 177.324219 38.195312 177.414062 38.269531 177.472656 38.367188 C 177.53125 38.460938 177.5625 38.578125 177.5625 38.710938 C 177.5625 38.847656 177.53125 38.964844 177.472656 39.0625 C 177.414062 39.15625 177.324219 39.230469 177.210938 39.285156 C 177.097656 39.332031 176.953125 39.355469 176.785156 39.355469 L 175.523438 39.355469 L 175.523438 39.96875 L 176.785156 39.96875 C 177.066406 39.96875 177.320312 39.925781 177.542969 39.839844 C 177.765625 39.75 177.945312 39.613281 178.074219 39.425781 C 178.203125 39.238281 178.269531 39 178.269531 38.710938 C 178.269531 38.417969 178.203125 38.179688 178.074219 38 C 177.945312 37.8125 177.765625 37.671875 177.542969 37.585938 C 177.320312 37.496094 177.066406 37.453125 176.785156 37.453125 L 175.523438 37.453125 Z M 175.523438 38.070312 "/>
<path style=" stroke:none;fill-rule:nonzero;fill:rgb(20%,20%,20%);fill-opacity:1;" d="M 179.789062 38.167969 L 182.789062 38.167969 L 182.789062 37.507812 L 179.789062 37.507812 Z M 182.332031 35.921875 L 182.332031 39.96875 L 183.039062 39.96875 L 183.039062 35.921875 Z M 179.375 35.921875 L 179.375 39.96875 L 180.082031 39.96875 L 180.082031 35.921875 Z M 179.375 35.921875 "/>
<path style=" stroke:none;fill-rule:nonzero;fill:rgb(20%,20%,20%);fill-opacity:1;" d="M 184.011719 37.945312 C 184.011719 38.351562 184.101562 38.714844 184.285156 39.039062 C 184.472656 39.355469 184.726562 39.601562 185.046875 39.785156 C 185.363281 39.96875 185.71875 40.058594 186.113281 40.058594 C 186.511719 40.058594 186.867188 39.96875 187.179688 39.785156 C 187.5 39.601562 187.746094 39.355469 187.929688 39.039062 C 188.117188 38.714844 188.214844 38.351562 188.214844 37.945312 C 188.214844 37.535156 188.117188 37.171875 187.929688 36.855469 C 187.746094 36.539062 187.5 36.289062 187.179688 36.109375 C 186.867188 35.925781 186.511719 35.835938 186.113281 35.835938 C 185.71875 35.835938 185.363281 35.925781 185.046875 36.109375 C 184.726562 36.289062 184.472656 36.539062 184.285156 36.855469 C 184.101562 37.171875 184.011719 37.535156 184.011719 37.945312 Z M 184.726562 37.945312 C 184.726562 37.664062 184.785156 37.414062 184.902344 37.199219 C 185.027344 36.976562 185.191406 36.800781 185.398438 36.679688 C 185.609375 36.554688 185.847656 36.496094 186.113281 36.496094 C 186.378906 36.496094 186.613281 36.554688 186.820312 36.679688 C 187.03125 36.800781 187.195312 36.976562 187.3125 37.199219 C 187.4375 37.414062 187.5 37.664062 187.5 37.945312 C 187.5 38.226562 187.4375 38.476562 187.3125 38.695312 C 187.195312 38.910156 187.03125 39.085938 186.820312 39.214844 C 186.613281 39.335938 186.378906 39.398438 186.113281 39.398438 C 185.847656 39.398438 185.609375 39.335938 185.398438 39.214844 C 185.191406 39.085938 185.027344 38.910156 184.902344 38.695312 C 184.785156 38.476562 184.726562 38.226562 184.726562 37.945312 Z M 184.726562 37.945312 "/>
<path style=" stroke:none;fill-rule:nonzero;fill:rgb(20%,20%,20%);fill-opacity:1;" d="M 189.28125 38.121094 L 192.75 38.121094 C 192.753906 38.085938 192.757812 38.050781 192.757812 38.015625 C 192.757812 37.980469 192.757812 37.945312 192.757812 37.910156 C 192.757812 37.484375 192.679688 37.117188 192.519531 36.8125 C 192.359375 36.5 192.136719 36.261719 191.847656 36.089844 C 191.558594 35.921875 191.226562 35.835938 190.84375 35.835938 C 190.496094 35.835938 190.179688 35.90625 189.898438 36.046875 C 189.621094 36.1875 189.394531 36.382812 189.21875 36.636719 C 189.042969 36.886719 188.925781 37.179688 188.863281 37.515625 C 188.855469 37.585938 188.84375 37.65625 188.839844 37.726562 C 188.832031 37.796875 188.828125 37.871094 188.828125 37.945312 C 188.828125 38.351562 188.914062 38.714844 189.078125 39.039062 C 189.246094 39.355469 189.476562 39.601562 189.765625 39.785156 C 190.058594 39.96875 190.390625 40.058594 190.753906 40.058594 C 191.105469 40.058594 191.402344 40.015625 191.636719 39.933594 C 191.871094 39.847656 192.074219 39.726562 192.238281 39.574219 C 192.402344 39.414062 192.550781 39.234375 192.6875 39.027344 L 192.113281 38.667969 C 192.023438 38.816406 191.917969 38.945312 191.796875 39.054688 C 191.671875 39.160156 191.53125 39.246094 191.371094 39.308594 C 191.21875 39.367188 191.042969 39.398438 190.84375 39.398438 C 190.578125 39.398438 190.347656 39.34375 190.152344 39.230469 C 189.960938 39.121094 189.808594 38.957031 189.703125 38.738281 C 189.597656 38.519531 189.542969 38.257812 189.542969 37.945312 L 189.5625 37.683594 C 189.5625 37.429688 189.617188 37.214844 189.730469 37.03125 C 189.847656 36.84375 190.003906 36.699219 190.199219 36.601562 C 190.390625 36.5 190.605469 36.449219 190.84375 36.449219 C 191.078125 36.449219 191.273438 36.496094 191.433594 36.589844 C 191.597656 36.679688 191.726562 36.804688 191.8125 36.96875 C 191.910156 37.128906 191.964844 37.3125 191.988281 37.523438 L 189.28125 37.523438 Z M 189.28125 38.121094 "/>
<path style=" stroke:none;fill-rule:nonzero;fill:rgb(20%,20%,20%);fill-opacity:1;" d="M 150.925781 48.179688 L 150.925781 48.828125 L 152.957031 48.828125 L 153.574219 48.179688 Z M 152.957031 48.503906 C 152.957031 48.785156 152.894531 49.035156 152.769531 49.25 C 152.652344 49.46875 152.488281 49.640625 152.277344 49.769531 C 152.070312 49.894531 151.835938 49.957031 151.570312 49.957031 C 151.351562 49.957031 151.148438 49.921875 150.953125 49.859375 C 150.765625 49.789062 150.601562 49.699219 150.457031 49.585938 C 150.324219 49.46875 150.222656 49.347656 150.160156 49.214844 L 150.160156 50.097656 C 150.300781 50.261719 150.5 50.390625 150.757812 50.484375 C 151.023438 50.570312 151.292969 50.617188 151.570312 50.617188 C 151.972656 50.617188 152.328125 50.523438 152.636719 50.34375 C 152.957031 50.160156 153.207031 49.910156 153.390625 49.59375 C 153.578125 49.273438 153.671875 48.910156 153.671875 48.503906 C 153.671875 48.09375 153.578125 47.730469 153.390625 47.414062 C 153.207031 47.097656 152.957031 46.847656 152.636719 46.664062 C 152.328125 46.484375 151.972656 46.390625 151.570312 46.390625 C 151.292969 46.390625 151.023438 46.4375 150.757812 46.53125 C 150.5 46.621094 150.300781 46.746094 150.160156 46.910156 L 150.160156 47.792969 C 150.222656 47.65625 150.324219 47.535156 150.457031 47.421875 C 150.601562 47.308594 150.765625 47.222656 150.953125 47.15625 C 151.148438 47.085938 151.351562 47.050781 151.570312 47.050781 C 151.835938 47.050781 152.070312 47.113281 152.277344 47.238281 C 152.488281 47.359375 152.652344 47.535156 152.769531 47.757812 C 152.894531 47.972656 152.957031 48.222656 152.957031 48.503906 Z M 152.957031 48.503906 "/>
<path style=" stroke:none;fill-rule:nonzero;fill:rgb(20%,20%,20%);fill-opacity:1;" d="M 158.152344 46.480469 L 154.664062 46.480469 L 154.664062 49.121094 C 154.664062 49.40625 154.601562 49.605469 154.46875 49.71875 C 154.347656 49.828125 154.195312 49.886719 154.019531 49.886719 L 154.019531 50.527344 C 154.328125 50.527344 154.578125 50.476562 154.78125 50.378906 C 154.980469 50.273438 155.125 50.117188 155.21875 49.910156 C 155.320312 49.699219 155.371094 49.4375 155.371094 49.121094 L 155.371094 47.140625 L 157.445312 47.140625 L 157.445312 50.527344 L 158.152344 50.527344 Z M 158.152344 46.480469 "/>
<path style=" stroke:none;fill-rule:nonzero;fill:rgb(20%,20%,20%);fill-opacity:1;" d="M 159.613281 48.679688 L 163.082031 48.679688 C 163.085938 48.644531 163.089844 48.609375 163.089844 48.574219 C 163.089844 48.539062 163.089844 48.503906 163.089844 48.46875 C 163.089844 48.039062 163.011719 47.675781 162.851562 47.367188 C 162.691406 47.058594 162.46875 46.816406 162.179688 46.648438 C 161.894531 46.476562 161.558594 46.390625 161.175781 46.390625 C 160.828125 46.390625 160.511719 46.460938 160.230469 46.605469 C 159.953125 46.746094 159.726562 46.941406 159.550781 47.191406 C 159.375 47.445312 159.257812 47.738281 159.199219 48.074219 C 159.1875 48.144531 159.175781 48.214844 159.171875 48.285156 C 159.164062 48.355469 159.164062 48.429688 159.164062 48.503906 C 159.164062 48.910156 159.246094 49.273438 159.410156 49.59375 C 159.582031 49.910156 159.808594 50.160156 160.097656 50.34375 C 160.390625 50.523438 160.722656 50.617188 161.085938 50.617188 C 161.441406 50.617188 161.734375 50.574219 161.96875 50.492188 C 162.203125 50.402344 162.40625 50.285156 162.570312 50.132812 C 162.734375 49.972656 162.882812 49.792969 163.019531 49.585938 L 162.445312 49.226562 C 162.359375 49.371094 162.25 49.5 162.128906 49.613281 C 162.003906 49.71875 161.863281 49.804688 161.703125 49.867188 C 161.550781 49.925781 161.375 49.957031 161.175781 49.957031 C 160.910156 49.957031 160.679688 49.898438 160.488281 49.789062 C 160.292969 49.675781 160.140625 49.511719 160.035156 49.296875 C 159.929688 49.078125 159.878906 48.816406 159.878906 48.503906 L 159.894531 48.238281 C 159.894531 47.988281 159.949219 47.769531 160.0625 47.589844 C 160.179688 47.402344 160.335938 47.257812 160.53125 47.15625 C 160.726562 47.058594 160.941406 47.007812 161.175781 47.007812 C 161.410156 47.007812 161.605469 47.054688 161.765625 47.148438 C 161.929688 47.238281 162.058594 47.363281 162.144531 47.527344 C 162.238281 47.6875 162.300781 47.871094 162.324219 48.082031 L 159.613281 48.082031 Z M 159.613281 48.679688 "/>
<path style=" stroke:none;fill-rule:nonzero;fill:rgb(20%,20%,20%);fill-opacity:1;" d="M 164.015625 46.480469 L 164.015625 50.527344 L 164.71875 50.527344 L 164.71875 46.480469 Z M 166.21875 46.480469 L 164.457031 48.152344 L 166.398438 50.527344 L 167.28125 50.527344 L 165.335938 48.152344 L 167.101562 46.480469 Z M 166.21875 46.480469 "/>
<path style=" stroke:none;fill-rule:nonzero;fill:rgb(20%,20%,20%);fill-opacity:1;" d="M 167.328125 46.480469 L 167.328125 47.140625 L 169.710938 47.140625 L 169.710938 46.480469 Z M 168.164062 46.65625 L 168.164062 50.527344 L 168.871094 50.527344 L 168.871094 46.65625 Z M 168.164062 46.65625 "/>
<path style=" stroke:none;fill-rule:nonzero;fill:rgb(20%,20%,20%);fill-opacity:1;" d="M 171.082031 52.464844 L 171.082031 46.480469 L 170.375 46.480469 L 170.375 52.464844 Z M 174.480469 48.503906 C 174.480469 48.0625 174.386719 47.6875 174.207031 47.378906 C 174.023438 47.0625 173.777344 46.816406 173.472656 46.648438 C 173.171875 46.476562 172.835938 46.390625 172.464844 46.390625 C 172.214844 46.390625 171.980469 46.441406 171.769531 46.542969 C 171.5625 46.636719 171.382812 46.773438 171.230469 46.957031 C 171.082031 47.136719 170.96875 47.359375 170.886719 47.625 C 170.804688 47.882812 170.761719 48.175781 170.761719 48.503906 C 170.761719 48.832031 170.804688 49.128906 170.886719 49.390625 C 170.96875 49.652344 171.082031 49.871094 171.230469 50.050781 C 171.382812 50.234375 171.5625 50.375 171.769531 50.476562 C 171.980469 50.570312 172.214844 50.617188 172.464844 50.617188 C 172.835938 50.617188 173.171875 50.53125 173.472656 50.359375 C 173.777344 50.191406 174.023438 49.945312 174.207031 49.628906 C 174.386719 49.3125 174.480469 48.9375 174.480469 48.503906 Z M 173.765625 48.503906 C 173.765625 48.816406 173.699219 49.078125 173.570312 49.296875 C 173.445312 49.511719 173.277344 49.675781 173.066406 49.789062 C 172.859375 49.898438 172.632812 49.957031 172.378906 49.957031 C 172.226562 49.957031 172.074219 49.921875 171.917969 49.859375 C 171.765625 49.792969 171.625 49.699219 171.496094 49.578125 C 171.371094 49.453125 171.273438 49.304688 171.195312 49.128906 C 171.121094 48.945312 171.082031 48.738281 171.082031 48.503906 C 171.082031 48.269531 171.121094 48.0625 171.195312 47.886719 C 171.273438 47.707031 171.371094 47.554688 171.496094 47.429688 C 171.625 47.308594 171.765625 47.214844 171.917969 47.148438 C 172.074219 47.085938 172.226562 47.050781 172.378906 47.050781 C 172.632812 47.050781 172.859375 47.109375 173.066406 47.21875 C 173.277344 47.332031 173.445312 47.496094 173.570312 47.710938 C 173.699219 47.929688 173.765625 48.191406 173.765625 48.503906 Z M 173.765625 48.503906 "/>
<path style=" stroke:none;fill-rule:nonzero;fill:rgb(20%,20%,20%);fill-opacity:1;" d="M 175.097656 48.503906 C 175.097656 48.910156 175.191406 49.273438 175.375 49.59375 C 175.5625 49.910156 175.816406 50.160156 176.132812 50.34375 C 176.449219 50.523438 176.808594 50.617188 177.199219 50.617188 C 177.601562 50.617188 177.957031 50.523438 178.269531 50.34375 C 178.585938 50.160156 178.835938 49.910156 179.019531 49.59375 C 179.207031 49.273438 179.300781 48.910156 179.300781 48.503906 C 179.300781 48.09375 179.207031 47.730469 179.019531 47.414062 C 178.835938 47.097656 178.585938 46.847656 178.269531 46.664062 C 177.957031 46.484375 177.601562 46.390625 177.199219 46.390625 C 176.808594 46.390625 176.449219 46.484375 176.132812 46.664062 C 175.816406 46.847656 175.5625 47.097656 175.375 47.414062 C 175.191406 47.730469 175.097656 48.09375 175.097656 48.503906 Z M 175.816406 48.503906 C 175.816406 48.222656 175.875 47.972656 175.992188 47.757812 C 176.113281 47.535156 176.28125 47.359375 176.484375 47.238281 C 176.695312 47.113281 176.9375 47.050781 177.199219 47.050781 C 177.464844 47.050781 177.699219 47.113281 177.90625 47.238281 C 178.117188 47.359375 178.28125 47.535156 178.402344 47.757812 C 178.523438 47.972656 178.585938 48.222656 178.585938 48.503906 C 178.585938 48.785156 178.523438 49.035156 178.402344 49.25 C 178.28125 49.46875 178.117188 49.640625 177.90625 49.769531 C 177.699219 49.894531 177.464844 49.957031 177.199219 49.957031 C 176.9375 49.957031 176.695312 49.894531 176.484375 49.769531 C 176.28125 49.640625 176.113281 49.46875 175.992188 49.25 C 175.875 49.035156 175.816406 48.785156 175.816406 48.503906 Z M 175.816406 48.503906 "/>
<path style=" stroke:none;fill-rule:nonzero;fill:rgb(20%,20%,20%);fill-opacity:1;" d="M 180.683594 48.722656 L 183.6875 48.722656 L 183.6875 48.0625 L 180.683594 48.0625 Z M 183.226562 46.480469 L 183.226562 50.527344 L 183.933594 50.527344 L 183.933594 46.480469 Z M 180.269531 46.480469 L 180.269531 50.527344 L 180.976562 50.527344 L 180.976562 46.480469 Z M 180.269531 46.480469 "/>
<path style=" stroke:none;fill-rule:nonzero;fill:rgb(20%,20%,20%);fill-opacity:1;" d="M 185.675781 48.722656 L 188.679688 48.722656 L 188.679688 48.0625 L 185.675781 48.0625 Z M 188.21875 46.480469 L 188.21875 50.527344 L 188.925781 50.527344 L 188.925781 46.480469 Z M 185.261719 46.480469 L 185.261719 50.527344 L 185.96875 50.527344 L 185.96875 46.480469 Z M 185.261719 46.480469 "/>
<path style=" stroke:none;fill-rule:nonzero;fill:rgb(20%,20%,20%);fill-opacity:1;" d="M 189.898438 48.503906 C 189.898438 48.910156 189.988281 49.273438 190.171875 49.59375 C 190.359375 49.910156 190.613281 50.160156 190.933594 50.34375 C 191.25 50.523438 191.605469 50.617188 192 50.617188 C 192.398438 50.617188 192.753906 50.523438 193.066406 50.34375 C 193.386719 50.160156 193.632812 49.910156 193.816406 49.59375 C 194.003906 49.273438 194.101562 48.910156 194.101562 48.503906 C 194.101562 48.09375 194.003906 47.730469 193.816406 47.414062 C 193.632812 47.097656 193.386719 46.847656 193.066406 46.664062 C 192.753906 46.484375 192.398438 46.390625 192 46.390625 C 191.605469 46.390625 191.25 46.484375 190.933594 46.664062 C 190.613281 46.847656 190.359375 47.097656 190.171875 47.414062 C 189.988281 47.730469 189.898438 48.09375 189.898438 48.503906 Z M 190.613281 48.503906 C 190.613281 48.222656 190.671875 47.972656 190.789062 47.757812 C 190.914062 47.535156 191.078125 47.359375 191.285156 47.238281 C 191.496094 47.113281 191.734375 47.050781 192 47.050781 C 192.265625 47.050781 192.5 47.113281 192.707031 47.238281 C 192.917969 47.359375 193.082031 47.535156 193.199219 47.757812 C 193.324219 47.972656 193.386719 48.222656 193.386719 48.503906 C 193.386719 48.785156 193.324219 49.035156 193.199219 49.25 C 193.082031 49.46875 192.917969 49.640625 192.707031 49.769531 C 192.5 49.894531 192.265625 49.957031 192 49.957031 C 191.734375 49.957031 191.496094 49.894531 191.285156 49.769531 C 191.078125 49.640625 190.914062 49.46875 190.789062 49.25 C 190.671875 49.035156 190.613281 48.785156 190.613281 48.503906 Z M 190.613281 48.503906 "/>
<path style=" stroke:none;fill-rule:nonzero;fill:rgb(20%,20%,20%);fill-opacity:1;" d="M 195.167969 48.679688 L 198.636719 48.679688 C 198.640625 48.644531 198.644531 48.609375 198.644531 48.574219 C 198.644531 48.539062 198.644531 48.503906 198.644531 48.46875 C 198.644531 48.039062 198.566406 47.675781 198.40625 47.367188 C 198.246094 47.058594 198.023438 46.816406 197.734375 46.648438 C 197.449219 46.476562 197.113281 46.390625 196.730469 46.390625 C 196.382812 46.390625 196.066406 46.460938 195.785156 46.605469 C 195.507812 46.746094 195.28125 46.941406 195.105469 47.191406 C 194.929688 47.445312 194.8125 47.738281 194.753906 48.074219 C 194.742188 48.144531 194.734375 48.214844 194.726562 48.285156 C 194.71875 48.355469 194.714844 48.429688 194.714844 48.503906 C 194.714844 48.910156 194.800781 49.273438 194.964844 49.59375 C 195.136719 49.910156 195.363281 50.160156 195.652344 50.34375 C 195.945312 50.523438 196.277344 50.617188 196.640625 50.617188 C 196.992188 50.617188 197.289062 50.574219 197.523438 50.492188 C 197.761719 50.402344 197.960938 50.285156 198.125 50.132812 C 198.289062 49.972656 198.441406 49.792969 198.574219 49.585938 L 198 49.226562 C 197.910156 49.371094 197.804688 49.5 197.683594 49.613281 C 197.558594 49.71875 197.417969 49.804688 197.257812 49.867188 C 197.105469 49.925781 196.929688 49.957031 196.730469 49.957031 C 196.464844 49.957031 196.234375 49.898438 196.039062 49.789062 C 195.847656 49.675781 195.695312 49.511719 195.589844 49.296875 C 195.484375 49.078125 195.429688 48.816406 195.429688 48.503906 L 195.449219 48.238281 C 195.449219 47.988281 195.503906 47.769531 195.617188 47.589844 C 195.734375 47.402344 195.890625 47.257812 196.085938 47.15625 C 196.277344 47.058594 196.496094 47.007812 196.730469 47.007812 C 196.964844 47.007812 197.160156 47.054688 197.320312 47.148438 C 197.484375 47.238281 197.613281 47.363281 197.699219 47.527344 C 197.796875 47.6875 197.851562 47.871094 197.875 48.082031 L 195.167969 48.082031 Z M 195.167969 48.679688 "/>
<path style=" stroke:none;fill-rule:nonzero;fill:rgb(20%,20%,20%);fill-opacity:1;" d="M 150.027344 59.0625 C 150.027344 59.464844 150.117188 59.828125 150.300781 60.152344 C 150.488281 60.46875 150.742188 60.71875 151.058594 60.898438 C 151.375 61.082031 151.734375 61.171875 152.125 61.171875 C 152.527344 61.171875 152.882812 61.082031 153.195312 60.898438 C 153.511719 60.71875 153.761719 60.46875 153.945312 60.152344 C 154.132812 59.828125 154.226562 59.464844 154.226562 59.0625 C 154.226562 58.652344 154.132812 58.289062 153.945312 57.96875 C 153.761719 57.652344 153.511719 57.40625 153.195312 57.222656 C 152.882812 57.039062 152.527344 56.949219 152.125 56.949219 C 151.734375 56.949219 151.375 57.039062 151.058594 57.222656 C 150.742188 57.40625 150.488281 57.652344 150.300781 57.96875 C 150.117188 58.289062 150.027344 58.652344 150.027344 59.0625 Z M 150.742188 59.0625 C 150.742188 58.78125 150.800781 58.53125 150.917969 58.3125 C 151.042969 58.089844 151.207031 57.917969 151.410156 57.792969 C 151.625 57.671875 151.863281 57.609375 152.125 57.609375 C 152.390625 57.609375 152.628906 57.671875 152.832031 57.792969 C 153.042969 57.917969 153.210938 58.089844 153.328125 58.3125 C 153.449219 58.53125 153.511719 58.78125 153.511719 59.0625 C 153.511719 59.34375 153.449219 59.59375 153.328125 59.808594 C 153.210938 60.027344 153.042969 60.199219 152.832031 60.328125 C 152.628906 60.453125 152.390625 60.511719 152.125 60.511719 C 151.863281 60.511719 151.625 60.453125 151.410156 60.328125 C 151.207031 60.199219 151.042969 60.027344 150.917969 59.808594 C 150.800781 59.59375 150.742188 59.34375 150.742188 59.0625 Z M 150.742188 59.0625 "/>
<path style=" stroke:none;fill-rule:nonzero;fill:rgb(20%,20%,20%);fill-opacity:1;" d="M 156.945312 57.609375 C 157.210938 57.609375 157.445312 57.671875 157.652344 57.792969 C 157.863281 57.917969 158.027344 58.089844 158.144531 58.3125 C 158.269531 58.53125 158.332031 58.78125 158.332031 59.0625 C 158.332031 59.34375 158.269531 59.59375 158.144531 59.808594 C 158.027344 60.027344 157.863281 60.199219 157.652344 60.328125 C 157.445312 60.453125 157.210938 60.511719 156.945312 60.511719 C 156.679688 60.511719 156.441406 60.453125 156.230469 60.328125 C 156.023438 60.199219 155.859375 60.027344 155.734375 59.808594 C 155.613281 59.59375 155.550781 59.34375 155.550781 59.0625 L 154.84375 58.535156 C 154.84375 59.113281 154.9375 59.601562 155.117188 59.992188 C 155.304688 60.386719 155.558594 60.683594 155.878906 60.882812 C 156.195312 61.074219 156.550781 61.171875 156.945312 61.171875 C 157.34375 61.171875 157.699219 61.082031 158.011719 60.898438 C 158.332031 60.71875 158.582031 60.46875 158.761719 60.152344 C 158.953125 59.828125 159.046875 59.464844 159.046875 59.0625 C 159.046875 58.652344 158.953125 58.289062 158.761719 57.96875 C 158.582031 57.652344 158.332031 57.40625 158.011719 57.222656 C 157.699219 57.039062 157.34375 56.949219 156.945312 56.949219 Z M 155.234375 59.0625 L 155.550781 59.0625 C 155.550781 58.828125 155.589844 58.621094 155.675781 58.445312 C 155.761719 58.265625 155.875 58.109375 156.007812 57.988281 C 156.152344 57.863281 156.304688 57.769531 156.46875 57.707031 C 156.632812 57.640625 156.792969 57.609375 156.945312 57.609375 L 156.945312 56.949219 C 156.691406 56.949219 156.460938 57 156.246094 57.097656 C 156.042969 57.195312 155.863281 57.332031 155.710938 57.511719 C 155.554688 57.695312 155.4375 57.917969 155.355469 58.179688 C 155.273438 58.441406 155.234375 58.734375 155.234375 59.0625 Z M 154.84375 58.535156 L 155.460938 59 L 155.460938 58.09375 C 155.460938 57.871094 155.484375 57.648438 155.523438 57.425781 C 155.566406 57.203125 155.636719 56.992188 155.734375 56.792969 C 155.839844 56.59375 155.984375 56.414062 156.160156 56.253906 C 156.34375 56.097656 156.570312 55.972656 156.847656 55.886719 C 157.171875 55.78125 157.460938 55.648438 157.710938 55.488281 C 157.972656 55.332031 158.179688 55.144531 158.339844 54.933594 C 158.5 54.71875 158.59375 54.480469 158.621094 54.222656 L 157.925781 54.222656 C 157.882812 54.433594 157.761719 54.636719 157.5625 54.828125 C 157.367188 55.015625 157.070312 55.179688 156.671875 55.3125 C 156.316406 55.4375 156.023438 55.597656 155.789062 55.796875 C 155.554688 55.992188 155.363281 56.222656 155.222656 56.492188 C 155.089844 56.761719 154.992188 57.066406 154.933594 57.40625 C 154.875 57.746094 154.84375 58.121094 154.84375 58.535156 Z M 154.84375 58.535156 "/>
<path style=" stroke:none;fill-rule:nonzero;fill:rgb(20%,20%,20%);fill-opacity:1;" d="M 160.675781 63.019531 L 160.675781 57.039062 L 159.972656 57.039062 L 159.972656 63.019531 Z M 164.074219 59.0625 C 164.074219 58.621094 163.984375 58.246094 163.800781 57.933594 C 163.621094 57.617188 163.375 57.375 163.070312 57.203125 C 162.769531 57.035156 162.433594 56.949219 162.0625 56.949219 C 161.808594 56.949219 161.578125 57 161.367188 57.097656 C 161.160156 57.195312 160.980469 57.332031 160.828125 57.511719 C 160.679688 57.695312 160.566406 57.917969 160.484375 58.179688 C 160.402344 58.441406 160.359375 58.734375 160.359375 59.0625 C 160.359375 59.390625 160.402344 59.6875 160.484375 59.949219 C 160.566406 60.207031 160.679688 60.429688 160.828125 60.609375 C 160.980469 60.792969 161.160156 60.933594 161.367188 61.03125 C 161.578125 61.125 161.808594 61.171875 162.0625 61.171875 C 162.433594 61.171875 162.769531 61.089844 163.070312 60.917969 C 163.375 60.746094 163.621094 60.503906 163.800781 60.1875 C 163.984375 59.871094 164.074219 59.496094 164.074219 59.0625 Z M 163.359375 59.0625 C 163.359375 59.371094 163.296875 59.636719 163.167969 59.851562 C 163.042969 60.070312 162.875 60.234375 162.664062 60.347656 C 162.457031 60.457031 162.226562 60.511719 161.976562 60.511719 C 161.820312 60.511719 161.667969 60.480469 161.515625 60.417969 C 161.363281 60.351562 161.222656 60.257812 161.09375 60.136719 C 160.96875 60.011719 160.867188 59.863281 160.792969 59.6875 C 160.714844 59.503906 160.675781 59.296875 160.675781 59.0625 C 160.675781 58.828125 160.714844 58.621094 160.792969 58.445312 C 160.867188 58.265625 160.96875 58.109375 161.09375 57.988281 C 161.222656 57.863281 161.363281 57.769531 161.515625 57.707031 C 161.667969 57.640625 161.820312 57.609375 161.976562 57.609375 C 162.226562 57.609375 162.457031 57.664062 162.664062 57.777344 C 162.875 57.886719 163.042969 58.050781 163.167969 58.269531 C 163.296875 58.488281 163.359375 58.75 163.359375 59.0625 Z M 163.359375 59.0625 "/>
<path style=" stroke:none;fill-rule:nonzero;fill:rgb(20%,20%,20%);fill-opacity:1;" d="M 165.367188 59.898438 C 165.367188 59.734375 165.40625 59.59375 165.480469 59.476562 C 165.558594 59.359375 165.671875 59.265625 165.824219 59.203125 C 165.984375 59.136719 166.183594 59.105469 166.417969 59.105469 C 166.675781 59.105469 166.910156 59.140625 167.113281 59.210938 C 167.320312 59.277344 167.523438 59.378906 167.722656 59.519531 L 167.722656 59.105469 C 167.683594 59.050781 167.605469 58.984375 167.492188 58.902344 C 167.382812 58.816406 167.230469 58.738281 167.042969 58.675781 C 166.863281 58.605469 166.640625 58.570312 166.382812 58.570312 C 166.027344 58.570312 165.722656 58.625 165.464844 58.734375 C 165.207031 58.839844 165.003906 58.992188 164.863281 59.195312 C 164.722656 59.394531 164.652344 59.636719 164.652344 59.921875 C 164.652344 60.199219 164.714844 60.429688 164.835938 60.617188 C 164.96875 60.800781 165.136719 60.9375 165.347656 61.03125 C 165.5625 61.125 165.792969 61.171875 166.046875 61.171875 C 166.328125 61.171875 166.585938 61.125 166.816406 61.03125 C 167.042969 60.933594 167.226562 60.792969 167.363281 60.609375 C 167.503906 60.421875 167.574219 60.199219 167.574219 59.941406 L 167.433594 59.5 C 167.433594 59.753906 167.378906 59.957031 167.273438 60.109375 C 167.171875 60.261719 167.03125 60.371094 166.851562 60.441406 C 166.667969 60.511719 166.457031 60.546875 166.222656 60.546875 C 166.0625 60.546875 165.921875 60.523438 165.789062 60.476562 C 165.660156 60.425781 165.558594 60.351562 165.480469 60.257812 C 165.40625 60.160156 165.367188 60.039062 165.367188 59.898438 Z M 165.367188 57.988281 C 165.433594 57.941406 165.519531 57.886719 165.632812 57.820312 C 165.75 57.75 165.886719 57.691406 166.046875 57.644531 C 166.207031 57.59375 166.382812 57.566406 166.574219 57.566406 C 166.722656 57.566406 166.863281 57.589844 166.992188 57.636719 C 167.121094 57.683594 167.226562 57.753906 167.308594 57.847656 C 167.390625 57.933594 167.433594 58.046875 167.433594 58.179688 L 167.433594 61.085938 L 168.136719 61.085938 L 168.136719 58.179688 C 168.136719 57.988281 168.101562 57.816406 168.023438 57.664062 C 167.945312 57.511719 167.839844 57.382812 167.695312 57.277344 C 167.5625 57.167969 167.398438 57.089844 167.203125 57.039062 C 167.015625 56.980469 166.804688 56.949219 166.574219 56.949219 C 166.210938 56.949219 165.898438 57.003906 165.640625 57.117188 C 165.382812 57.230469 165.175781 57.339844 165.023438 57.453125 Z M 165.367188 57.988281 "/>
<path style=" stroke:none;fill-rule:nonzero;fill:rgb(20%,20%,20%);fill-opacity:1;" d="M 170.773438 59.0625 C 171.082031 59.0625 171.347656 59.015625 171.566406 58.929688 C 171.789062 58.839844 171.960938 58.722656 172.078125 58.570312 C 172.195312 58.410156 172.253906 58.234375 172.253906 58.039062 C 172.253906 57.839844 172.191406 57.660156 172.070312 57.496094 C 171.953125 57.332031 171.785156 57.199219 171.574219 57.097656 C 171.363281 57 171.125 56.949219 170.859375 56.949219 C 170.578125 56.949219 170.324219 57.007812 170.101562 57.125 C 169.878906 57.238281 169.699219 57.390625 169.570312 57.582031 C 169.441406 57.777344 169.378906 57.988281 169.378906 58.21875 L 170.09375 58.21875 C 170.09375 58.121094 170.117188 58.027344 170.171875 57.933594 C 170.222656 57.835938 170.308594 57.753906 170.417969 57.6875 C 170.535156 57.617188 170.683594 57.582031 170.859375 57.582031 C 171 57.582031 171.121094 57.605469 171.222656 57.644531 C 171.320312 57.6875 171.398438 57.746094 171.453125 57.820312 C 171.503906 57.898438 171.53125 57.988281 171.53125 58.09375 C 171.53125 58.242188 171.472656 58.367188 171.355469 58.472656 C 171.238281 58.570312 171.042969 58.621094 170.773438 58.621094 Z M 170.84375 61.171875 C 171.128906 61.171875 171.394531 61.125 171.636719 61.023438 C 171.878906 60.917969 172.070312 60.769531 172.210938 60.582031 C 172.359375 60.390625 172.429688 60.160156 172.429688 59.898438 C 172.429688 59.644531 172.363281 59.441406 172.226562 59.28125 C 172.09375 59.117188 171.898438 58.996094 171.644531 58.921875 C 171.398438 58.839844 171.105469 58.796875 170.773438 58.796875 L 170.773438 59.238281 C 170.976562 59.238281 171.152344 59.265625 171.292969 59.316406 C 171.441406 59.371094 171.546875 59.445312 171.617188 59.546875 C 171.695312 59.644531 171.734375 59.765625 171.734375 59.90625 C 171.734375 60.035156 171.699219 60.148438 171.628906 60.25 C 171.558594 60.347656 171.453125 60.425781 171.320312 60.476562 C 171.1875 60.53125 171.03125 60.558594 170.84375 60.558594 C 170.535156 60.558594 170.316406 60.480469 170.179688 60.328125 C 170.046875 60.175781 169.957031 60.003906 169.914062 59.808594 L 169.199219 59.808594 C 169.246094 60.203125 169.414062 60.527344 169.695312 60.785156 C 169.984375 61.042969 170.367188 61.171875 170.84375 61.171875 Z M 170.84375 61.171875 "/>
<path style=" stroke:none;fill-rule:nonzero;fill:rgb(20%,20%,20%);fill-opacity:1;" d="M 173.132812 59.0625 C 173.132812 59.464844 173.226562 59.828125 173.40625 60.152344 C 173.597656 60.46875 173.847656 60.71875 174.167969 60.898438 C 174.484375 61.082031 174.839844 61.171875 175.234375 61.171875 C 175.636719 61.171875 175.992188 61.082031 176.304688 60.898438 C 176.621094 60.71875 176.871094 60.46875 177.054688 60.152344 C 177.242188 59.828125 177.335938 59.464844 177.335938 59.0625 C 177.335938 58.652344 177.242188 58.289062 177.054688 57.96875 C 176.871094 57.652344 176.621094 57.40625 176.304688 57.222656 C 175.992188 57.039062 175.636719 56.949219 175.234375 56.949219 C 174.839844 56.949219 174.484375 57.039062 174.167969 57.222656 C 173.847656 57.40625 173.597656 57.652344 173.40625 57.96875 C 173.226562 58.289062 173.132812 58.652344 173.132812 59.0625 Z M 173.847656 59.0625 C 173.847656 58.78125 173.910156 58.53125 174.027344 58.3125 C 174.148438 58.089844 174.3125 57.917969 174.519531 57.792969 C 174.730469 57.671875 174.96875 57.609375 175.234375 57.609375 C 175.5 57.609375 175.734375 57.671875 175.941406 57.792969 C 176.152344 57.917969 176.316406 58.089844 176.433594 58.3125 C 176.558594 58.53125 176.621094 58.78125 176.621094 59.0625 C 176.621094 59.34375 176.558594 59.59375 176.433594 59.808594 C 176.316406 60.027344 176.152344 60.199219 175.941406 60.328125 C 175.734375 60.453125 175.5 60.511719 175.234375 60.511719 C 174.96875 60.511719 174.730469 60.453125 174.519531 60.328125 C 174.3125 60.199219 174.148438 60.027344 174.027344 59.808594 C 173.910156 59.59375 173.847656 59.34375 173.847656 59.0625 Z M 173.847656 59.0625 "/>
<path style=" stroke:none;fill-rule:nonzero;fill:rgb(20%,20%,20%);fill-opacity:1;" d="M 178.71875 58.972656 L 178.71875 59.34375 L 179.894531 59.34375 C 180.03125 59.34375 180.144531 59.359375 180.238281 59.386719 C 180.339844 59.410156 180.417969 59.449219 180.476562 59.5 C 180.542969 59.554688 180.585938 59.613281 180.617188 59.675781 C 180.652344 59.742188 180.671875 59.816406 180.671875 59.898438 C 180.671875 60.054688 180.605469 60.191406 180.476562 60.300781 C 180.351562 60.414062 180.160156 60.46875 179.894531 60.46875 L 178.71875 60.46875 L 178.71875 61.085938 L 180.070312 61.085938 C 180.535156 61.085938 180.867188 60.980469 181.066406 60.769531 C 181.273438 60.550781 181.375 60.289062 181.375 59.984375 C 181.375 59.722656 181.3125 59.515625 181.183594 59.371094 C 181.054688 59.222656 180.878906 59.121094 180.652344 59.0625 C 180.429688 59.003906 180.175781 58.972656 179.894531 58.972656 Z M 178.71875 59.148438 L 179.804688 59.148438 C 180.058594 59.148438 180.289062 59.113281 180.496094 59.042969 C 180.707031 58.96875 180.878906 58.855469 181.007812 58.710938 C 181.136719 58.558594 181.199219 58.367188 181.199219 58.136719 C 181.199219 57.875 181.136719 57.664062 181.007812 57.503906 C 180.878906 57.339844 180.707031 57.222656 180.496094 57.152344 C 180.289062 57.074219 180.058594 57.039062 179.804688 57.039062 L 178.71875 57.039062 L 178.71875 57.652344 L 179.804688 57.652344 C 179.945312 57.652344 180.066406 57.675781 180.167969 57.722656 C 180.273438 57.765625 180.351562 57.828125 180.40625 57.910156 C 180.464844 57.984375 180.496094 58.074219 180.496094 58.179688 C 180.496094 58.257812 180.476562 58.332031 180.441406 58.402344 C 180.410156 58.464844 180.367188 58.523438 180.308594 58.578125 C 180.25 58.628906 180.175781 58.671875 180.089844 58.699219 C 180.003906 58.722656 179.910156 58.734375 179.804688 58.734375 L 178.71875 58.734375 Z M 178.304688 57.039062 L 178.304688 61.085938 L 179.011719 61.085938 L 179.011719 57.039062 Z M 178.304688 57.039062 "/>
<path style=" stroke:none;fill-rule:nonzero;fill:rgb(20%,20%,20%);fill-opacity:1;" d="M 182.625 59.898438 C 182.625 59.734375 182.660156 59.59375 182.738281 59.476562 C 182.8125 59.359375 182.929688 59.265625 183.082031 59.203125 C 183.242188 59.136719 183.4375 59.105469 183.671875 59.105469 C 183.929688 59.105469 184.164062 59.140625 184.371094 59.210938 C 184.574219 59.277344 184.777344 59.378906 184.980469 59.519531 L 184.980469 59.105469 C 184.9375 59.050781 184.863281 58.984375 184.75 58.902344 C 184.636719 58.816406 184.488281 58.738281 184.300781 58.675781 C 184.117188 58.605469 183.894531 58.570312 183.636719 58.570312 C 183.285156 58.570312 182.976562 58.625 182.71875 58.734375 C 182.460938 58.839844 182.261719 58.992188 182.121094 59.195312 C 181.980469 59.394531 181.910156 59.636719 181.910156 59.921875 C 181.910156 60.199219 181.96875 60.429688 182.09375 60.617188 C 182.222656 60.800781 182.394531 60.9375 182.605469 61.03125 C 182.816406 61.125 183.046875 61.171875 183.304688 61.171875 C 183.585938 61.171875 183.839844 61.125 184.070312 61.03125 C 184.300781 60.933594 184.480469 60.792969 184.617188 60.609375 C 184.757812 60.421875 184.828125 60.199219 184.828125 59.941406 L 184.6875 59.5 C 184.6875 59.753906 184.636719 59.957031 184.53125 60.109375 C 184.429688 60.261719 184.289062 60.371094 184.105469 60.441406 C 183.921875 60.511719 183.714844 60.546875 183.480469 60.546875 C 183.320312 60.546875 183.175781 60.523438 183.046875 60.476562 C 182.917969 60.425781 182.8125 60.351562 182.738281 60.257812 C 182.660156 60.160156 182.625 60.039062 182.625 59.898438 Z M 182.625 57.988281 C 182.6875 57.941406 182.773438 57.886719 182.886719 57.820312 C 183.003906 57.75 183.144531 57.691406 183.304688 57.644531 C 183.460938 57.59375 183.636719 57.566406 183.832031 57.566406 C 183.980469 57.566406 184.117188 57.589844 184.246094 57.636719 C 184.375 57.683594 184.480469 57.753906 184.566406 57.847656 C 184.644531 57.933594 184.6875 58.046875 184.6875 58.179688 L 184.6875 61.085938 L 185.394531 61.085938 L 185.394531 58.179688 C 185.394531 57.988281 185.355469 57.816406 185.28125 57.664062 C 185.203125 57.511719 185.09375 57.382812 184.953125 57.277344 C 184.816406 57.167969 184.652344 57.089844 184.457031 57.039062 C 184.269531 56.980469 184.0625 56.949219 183.832031 56.949219 C 183.46875 56.949219 183.15625 57.003906 182.898438 57.117188 C 182.636719 57.230469 182.429688 57.339844 182.277344 57.453125 Z M 182.625 57.988281 "/>
<path style=" stroke:none;fill-rule:nonzero;fill:rgb(20%,20%,20%);fill-opacity:1;" d="M 187.003906 59.28125 L 190.003906 59.28125 L 190.003906 58.621094 L 187.003906 58.621094 Z M 189.546875 57.039062 L 189.546875 61.085938 L 190.253906 61.085938 L 190.253906 57.039062 Z M 186.589844 57.039062 L 186.589844 61.085938 L 187.296875 61.085938 L 187.296875 57.039062 Z M 186.589844 57.039062 "/>
<path style=" stroke:none;fill-rule:nonzero;fill:rgb(20%,20%,20%);fill-opacity:1;" d="M 194.976562 57.742188 L 195.023438 56.730469 L 191.667969 60.382812 L 191.625 61.394531 Z M 192.332031 57.039062 L 191.625 57.039062 L 191.625 61.394531 L 192.332031 60.425781 Z M 195.023438 56.730469 L 194.316406 57.699219 L 194.316406 61.085938 L 195.023438 61.085938 Z M 195.023438 56.730469 "/>
<path style=" stroke:none;fill-rule:nonzero;fill:rgb(20%,20%,20%);fill-opacity:1;" d="M 196.484375 59.238281 L 199.953125 59.238281 C 199.960938 59.203125 199.964844 59.167969 199.964844 59.132812 C 199.964844 59.097656 199.964844 59.0625 199.964844 59.027344 C 199.964844 58.597656 199.882812 58.230469 199.726562 57.925781 C 199.566406 57.617188 199.34375 57.375 199.054688 57.203125 C 198.765625 57.035156 198.429688 56.949219 198.046875 56.949219 C 197.703125 56.949219 197.386719 57.019531 197.101562 57.160156 C 196.828125 57.300781 196.601562 57.5 196.421875 57.75 C 196.246094 58.003906 196.128906 58.296875 196.070312 58.628906 C 196.058594 58.699219 196.050781 58.769531 196.042969 58.839844 C 196.039062 58.910156 196.035156 58.984375 196.035156 59.0625 C 196.035156 59.464844 196.117188 59.828125 196.28125 60.152344 C 196.453125 60.46875 196.683594 60.71875 196.972656 60.898438 C 197.265625 61.082031 197.597656 61.171875 197.960938 61.171875 C 198.3125 61.171875 198.605469 61.132812 198.84375 61.050781 C 199.078125 60.960938 199.277344 60.839844 199.441406 60.6875 C 199.609375 60.53125 199.757812 60.347656 199.890625 60.144531 L 199.320312 59.78125 C 199.230469 59.929688 199.125 60.058594 199 60.171875 C 198.878906 60.277344 198.734375 60.359375 198.578125 60.425781 C 198.425781 60.484375 198.25 60.511719 198.046875 60.511719 C 197.78125 60.511719 197.554688 60.457031 197.359375 60.347656 C 197.164062 60.234375 197.015625 60.070312 196.910156 59.851562 C 196.804688 59.636719 196.75 59.371094 196.75 59.0625 L 196.769531 58.796875 C 196.769531 58.546875 196.824219 58.328125 196.9375 58.144531 C 197.054688 57.957031 197.210938 57.816406 197.402344 57.714844 C 197.597656 57.617188 197.8125 57.566406 198.046875 57.566406 C 198.285156 57.566406 198.480469 57.613281 198.640625 57.707031 C 198.804688 57.792969 198.929688 57.921875 199.019531 58.085938 C 199.113281 58.242188 199.171875 58.429688 199.195312 58.640625 L 196.484375 58.640625 Z M 196.484375 59.238281 "/>
<path style=" stroke:none;fill-rule:evenodd;fill:url(#linear0);" d="M 37.519531 0.128906 C 30.785156 -0.757812 24.289062 2.980469 21.691406 9.238281 L 14.835938 25.757812 C 14.628906 26.253906 14.355469 26.726562 14.027344 27.152344 L 3.105469 41.332031 C -1.035156 46.703125 -1.035156 54.175781 3.105469 59.550781 L 14.027344 73.726562 C 14.355469 74.15625 14.628906 74.625 14.835938 75.121094 L 21.691406 91.640625 C 24.289062 97.898438 30.785156 101.636719 37.519531 100.75 L 55.296875 98.410156 C 55.835938 98.339844 56.378906 98.339844 56.917969 98.410156 L 74.695312 100.75 C 81.433594 101.636719 87.925781 97.898438 90.523438 91.640625 L 97.378906 75.121094 C 97.585938 74.625 97.859375 74.15625 98.1875 73.726562 L 104.984375 64.90625 C 103.417969 66.050781 101.683594 66.96875 99.804688 67.679688 C 99.792969 67.683594 99.785156 67.691406 99.773438 67.695312 C 97.121094 68.675781 94.285156 69.136719 91.316406 69.136719 C 91.089844 69.136719 90.863281 69.132812 90.640625 69.128906 C 90.082031 69.953125 89.605469 70.835938 89.222656 71.757812 L 82.367188 88.277344 C 81.296875 90.855469 78.625 92.394531 75.851562 92.027344 L 58.070312 89.6875 C 56.769531 89.515625 55.445312 89.515625 54.144531 89.6875 L 36.363281 92.027344 C 33.589844 92.394531 30.917969 90.855469 29.847656 88.277344 L 22.992188 71.757812 C 22.488281 70.546875 21.828125 69.40625 21.027344 68.367188 L 10.105469 54.191406 C 8.398438 51.980469 8.398438 48.902344 10.105469 46.6875 L 21.027344 32.511719 C 21.828125 31.472656 22.488281 30.332031 22.992188 29.121094 L 29.847656 12.601562 C 30.917969 10.023438 33.589844 8.488281 36.363281 8.851562 L 54.144531 11.191406 C 55.445312 11.363281 56.769531 11.363281 58.070312 11.191406 L 75.851562 8.851562 C 78.625 8.488281 81.296875 10.023438 82.367188 12.601562 L 88.597656 27.605469 C 89.484375 27.515625 90.390625 27.476562 91.316406 27.476562 C 94.183594 27.476562 96.929688 27.917969 99.503906 28.863281 L 98.1875 27.152344 C 97.859375 26.726562 97.585938 26.253906 97.378906 25.757812 L 90.523438 9.238281 C 87.925781 2.980469 81.433594 -0.757812 74.695312 0.128906 L 56.917969 2.46875 C 56.378906 2.539062 55.835938 2.539062 55.296875 2.46875 Z M 111.480469 45.8125 C 111.371094 46.625 111.316406 47.460938 111.316406 48.328125 C 111.316406 50.0625 111.527344 51.699219 111.953125 53.230469 C 112.421875 50.769531 112.261719 48.210938 111.480469 45.8125 Z M 94.425781 64.167969 L 102.109375 54.191406 C 103.816406 51.980469 103.816406 48.902344 102.109375 46.6875 L 91.1875 32.511719 C 91.117188 32.417969 91.046875 32.324219 90.976562 32.230469 C 91.089844 32.226562 91.203125 32.226562 91.316406 32.226562 C 93.789062 32.226562 96.054688 32.625 98.113281 33.414062 C 100.199219 34.179688 101.996094 35.261719 103.496094 36.671875 C 105.027344 38.078125 106.203125 39.78125 107.027344 41.773438 C 107.125 42 107.21875 42.230469 107.304688 42.460938 C 107.972656 44.246094 108.304688 46.199219 108.304688 48.328125 C 108.304688 50.46875 107.96875 52.445312 107.292969 54.257812 C 107.210938 54.484375 107.121094 54.707031 107.027344 54.925781 C 106.203125 56.890625 105.027344 58.578125 103.496094 59.984375 C 101.996094 61.363281 100.199219 62.449219 98.113281 63.242188 C 96.949219 63.671875 95.71875 63.980469 94.425781 64.167969 Z M 94.425781 64.167969 "/>
<path style=" stroke:none;fill-rule:nonzero;fill:rgb(20%,20%,20%);fill-opacity:1;" d="M 50.820312 48.0625 L 59.25 60.863281 L 67.679688 48.0625 L 69.578125 63.722656 L 77.476562 63.722656 L 72.402344 31.390625 L 59.25 50.132812 L 46.054688 31.390625 L 41.113281 63.722656 L 48.921875 63.722656 Z M 50.820312 48.0625 "/>
<path style=" stroke:none;fill-rule:nonzero;fill:rgb(20%,20%,20%);fill-opacity:1;" d="M 84.917969 51.363281 L 101.421875 51.363281 L 101.421875 45.292969 L 84.917969 45.292969 Z M 100.9375 48.328125 C 100.9375 49.734375 100.65625 51.011719 100.097656 52.15625 C 99.539062 53.296875 98.773438 54.28125 97.804688 55.101562 C 96.832031 55.894531 95.742188 56.511719 94.539062 56.949219 C 93.332031 57.390625 92.109375 57.609375 90.875 57.609375 C 89.433594 57.609375 88.125 57.433594 86.949219 57.082031 C 85.769531 56.699219 84.742188 56.246094 83.859375 55.71875 C 83.003906 55.160156 82.300781 54.617188 81.738281 54.089844 L 81.738281 61.347656 C 82.945312 62.257812 84.285156 62.992188 85.757812 63.546875 C 87.226562 64.105469 89.082031 64.382812 91.316406 64.382812 C 93.789062 64.382812 96.054688 64.003906 98.113281 63.242188 C 100.203125 62.449219 101.996094 61.363281 103.496094 59.984375 C 105.027344 58.578125 106.203125 56.890625 107.027344 54.925781 C 107.878906 52.933594 108.304688 50.734375 108.304688 48.328125 C 108.304688 45.921875 107.878906 43.738281 107.027344 41.773438 C 106.203125 39.78125 105.027344 38.078125 103.496094 36.671875 C 101.996094 35.261719 100.203125 34.179688 98.113281 33.414062 C 96.054688 32.625 93.789062 32.226562 91.316406 32.226562 C 89.082031 32.226562 87.226562 32.507812 85.757812 33.0625 C 84.285156 33.589844 82.945312 34.339844 81.738281 35.308594 L 81.738281 42.566406 C 82.300781 42.007812 83.003906 41.464844 83.859375 40.9375 C 84.742188 40.410156 85.769531 39.96875 86.949219 39.617188 C 88.125 39.238281 89.433594 39.046875 90.875 39.046875 C 92.109375 39.046875 93.332031 39.265625 94.539062 39.707031 C 95.742188 40.144531 96.832031 40.777344 97.804688 41.597656 C 98.773438 42.390625 99.539062 43.355469 100.097656 44.5 C 100.65625 45.644531 100.9375 46.921875 100.9375 48.328125 Z M 100.9375 48.328125 "/>
<path style=" stroke:none;fill-rule:nonzero;fill:rgb(20%,20%,20%);fill-opacity:1;" d="M 119.171875 48.328125 C 119.171875 46.949219 119.378906 45.703125 119.789062 44.589844 C 120.199219 43.472656 120.789062 42.507812 121.554688 41.6875 C 122.347656 40.863281 123.273438 40.21875 124.335938 39.75 C 125.421875 39.28125 126.628906 39.046875 127.953125 39.046875 C 129.277344 39.046875 130.46875 39.28125 131.527344 39.75 C 132.617188 40.21875 133.542969 40.863281 134.308594 41.6875 C 135.074219 42.507812 135.648438 43.488281 136.027344 44.632812 C 136.410156 45.746094 136.601562 46.980469 136.601562 48.328125 C 136.601562 49.675781 136.398438 50.921875 135.984375 52.066406 C 135.574219 53.179688 134.984375 54.148438 134.21875 54.96875 C 133.453125 55.792969 132.542969 56.4375 131.484375 56.90625 C 130.425781 57.375 129.246094 57.609375 127.953125 57.609375 C 126.628906 57.609375 125.421875 57.375 124.335938 56.90625 C 123.273438 56.4375 122.347656 55.792969 121.554688 54.96875 C 120.789062 54.148438 120.199219 53.167969 119.789062 52.023438 C 119.378906 50.878906 119.171875 49.648438 119.171875 48.328125 Z M 111.316406 48.328125 C 111.316406 50.703125 111.714844 52.886719 112.507812 54.882812 C 113.300781 56.875 114.449219 58.605469 115.949219 60.074219 C 117.449219 61.539062 119.214844 62.683594 121.246094 63.503906 C 123.273438 64.296875 125.511719 64.691406 127.953125 64.691406 C 130.367188 64.691406 132.574219 64.296875 134.574219 63.503906 C 136.601562 62.683594 138.367188 61.539062 139.867188 60.074219 C 141.367188 58.605469 142.53125 56.875 143.355469 54.882812 C 144.179688 52.886719 144.589844 50.703125 144.589844 48.328125 C 144.589844 45.953125 144.164062 43.78125 143.3125 41.816406 C 142.457031 39.824219 141.28125 38.109375 139.78125 36.671875 C 138.308594 35.234375 136.558594 34.132812 134.527344 33.371094 C 132.527344 32.609375 130.335938 32.226562 127.953125 32.226562 C 125.570312 32.226562 123.363281 32.609375 121.332031 33.371094 C 119.304688 34.132812 117.539062 35.234375 116.039062 36.671875 C 114.539062 38.109375 113.375 39.824219 112.550781 41.816406 C 111.726562 43.78125 111.316406 45.953125 111.316406 48.328125 Z M 111.316406 48.328125 "/>
</g>
</svg>
