<?xml version="1.0" encoding="utf-8"?>
<svg width="1133" height="574" viewBox="0 0 1133 574" fill="none" xmlns="http://www.w3.org/2000/svg">
<path d="M873.748 227.156H878.248L872.248 202.406L869.998 208.906L873.748 227.156ZM861.748 223.706L863.248 228.706L872.748 210.406L872.248 202.406L861.748 223.706ZM863.248 228.706L864.748 223.706L854.398 202.406L853.898 210.406L863.248 228.706ZM848.398 227.156H852.898L856.648 208.906L854.398 202.406L848.398 227.156Z" fill="#333333"/>
<path d="M880.27 215.656C880.27 217.956 880.786 220.023 881.82 221.856C882.886 223.656 884.32 225.073 886.12 226.106C887.92 227.14 889.936 227.656 892.17 227.656C894.436 227.656 896.453 227.14 898.22 226.106C900.02 225.073 901.436 223.656 902.47 221.856C903.536 220.023 904.07 217.956 904.07 215.656C904.07 213.323 903.536 211.256 902.47 209.456C901.436 207.656 900.02 206.24 898.22 205.206C896.453 204.173 894.436 203.656 892.17 203.656C889.936 203.656 887.92 204.173 886.12 205.206C884.32 206.24 882.886 207.656 881.82 209.456C880.786 211.256 880.27 213.323 880.27 215.656ZM884.32 215.656C884.32 214.056 884.653 212.64 885.32 211.406C886.02 210.14 886.953 209.156 888.12 208.456C889.32 207.756 890.67 207.406 892.17 207.406C893.67 207.406 895.003 207.756 896.17 208.456C897.37 209.156 898.303 210.14 898.97 211.406C899.67 212.64 900.02 214.056 900.02 215.656C900.02 217.256 899.67 218.673 898.97 219.906C898.303 221.14 897.37 222.123 896.17 222.856C895.003 223.556 893.67 223.906 892.17 223.906C890.67 223.906 889.32 223.556 888.12 222.856C886.953 222.123 886.02 221.14 885.32 219.906C884.653 218.673 884.32 217.256 884.32 215.656Z" fill="#333333"/>
<path d="M919.464 207.406C920.964 207.406 922.298 207.756 923.464 208.456C924.664 209.156 925.598 210.14 926.264 211.406C926.964 212.64 927.314 214.056 927.314 215.656C927.314 217.256 926.964 218.673 926.264 219.906C925.598 221.14 924.664 222.123 923.464 222.856C922.298 223.556 920.964 223.906 919.464 223.906C917.964 223.906 916.614 223.556 915.414 222.856C914.248 222.123 913.314 221.14 912.614 219.906C911.914 218.673 911.564 217.256 911.564 215.656L907.564 212.656C907.564 215.956 908.081 218.723 909.114 220.956C910.181 223.19 911.614 224.873 913.414 226.006C915.214 227.106 917.231 227.656 919.464 227.656C921.731 227.656 923.748 227.14 925.514 226.106C927.314 225.073 928.731 223.656 929.764 221.856C930.831 220.023 931.364 217.956 931.364 215.656C931.364 213.323 930.831 211.256 929.764 209.456C928.731 207.656 927.314 206.24 925.514 205.206C923.748 204.173 921.731 203.656 919.464 203.656V207.406ZM909.764 215.656H911.564C911.564 214.323 911.798 213.156 912.264 212.156C912.764 211.123 913.398 210.256 914.164 209.556C914.964 208.856 915.831 208.323 916.764 207.956C917.698 207.59 918.598 207.406 919.464 207.406V203.656C918.031 203.656 916.714 203.94 915.514 204.506C914.348 205.04 913.331 205.823 912.464 206.856C911.598 207.89 910.931 209.156 910.464 210.656C909.998 212.123 909.764 213.79 909.764 215.656ZM907.564 212.656L911.064 215.306V210.156C911.064 208.89 911.181 207.623 911.414 206.356C911.648 205.09 912.048 203.89 912.614 202.756C913.214 201.623 914.014 200.606 915.014 199.706C916.048 198.806 917.348 198.106 918.914 197.606C920.748 197.006 922.381 196.256 923.814 195.356C925.281 194.456 926.464 193.406 927.364 192.206C928.264 190.973 928.798 189.623 928.964 188.156H925.014C924.781 189.356 924.098 190.506 922.964 191.606C921.864 192.673 920.181 193.59 917.914 194.356C915.914 195.056 914.248 195.973 912.914 197.106C911.581 198.206 910.514 199.523 909.714 201.056C908.948 202.59 908.398 204.323 908.064 206.256C907.731 208.19 907.564 210.323 907.564 212.656Z" fill="#333333"/>
<path d="M956.109 208.156L956.359 202.406L937.359 223.156L937.109 228.906L956.109 208.156ZM941.109 204.156H937.109V228.906L941.109 223.406V204.156ZM956.359 202.406L952.359 207.906V227.156H956.359V202.406Z" fill="#333333"/>
<path d="M984.255 204.156H964.505V219.156C964.505 220.79 964.139 221.923 963.405 222.556C962.705 223.19 961.855 223.506 960.855 223.506V227.156C962.589 227.156 964.022 226.873 965.155 226.306C966.289 225.706 967.122 224.823 967.655 223.656C968.222 222.456 968.505 220.956 968.505 219.156V207.906H980.255V227.156H984.255V204.156Z" fill="#333333"/>
<path d="M991.986 204.156V227.156H995.986V204.156H991.986ZM994.336 216.356H1001.49C1002.45 216.356 1003.25 216.506 1003.89 216.806C1004.55 217.073 1005.05 217.49 1005.39 218.056C1005.72 218.59 1005.89 219.24 1005.89 220.006C1005.89 220.773 1005.72 221.44 1005.39 222.006C1005.05 222.54 1004.55 222.956 1003.89 223.256C1003.25 223.523 1002.45 223.656 1001.49 223.656H994.336V227.156H1001.49C1003.09 227.156 1004.52 226.906 1005.79 226.406C1007.05 225.906 1008.05 225.123 1008.79 224.056C1009.52 222.99 1009.89 221.64 1009.89 220.006C1009.89 218.34 1009.52 216.99 1008.79 215.956C1008.05 214.89 1007.05 214.106 1005.79 213.606C1004.52 213.106 1003.09 212.856 1001.49 212.856H994.336V216.356Z" fill="#333333"/>
<path d="M1018.51 216.906H1035.51V213.156H1018.51V216.906ZM1032.91 204.156V227.156H1036.91V204.156H1032.91ZM1016.16 204.156V227.156H1020.16V204.156H1016.16Z" fill="#333333"/>
<path d="M1042.43 215.656C1042.43 217.956 1042.94 220.023 1043.98 221.856C1045.04 223.656 1046.48 225.073 1048.28 226.106C1050.08 227.14 1052.09 227.656 1054.33 227.656C1056.59 227.656 1058.61 227.14 1060.38 226.106C1062.18 225.073 1063.59 223.656 1064.63 221.856C1065.69 220.023 1066.23 217.956 1066.23 215.656C1066.23 213.323 1065.69 211.256 1064.63 209.456C1063.59 207.656 1062.18 206.24 1060.38 205.206C1058.61 204.173 1056.59 203.656 1054.33 203.656C1052.09 203.656 1050.08 204.173 1048.28 205.206C1046.48 206.24 1045.04 207.656 1043.98 209.456C1042.94 211.256 1042.43 213.323 1042.43 215.656ZM1046.48 215.656C1046.48 214.056 1046.81 212.64 1047.48 211.406C1048.18 210.14 1049.11 209.156 1050.28 208.456C1051.48 207.756 1052.83 207.406 1054.33 207.406C1055.83 207.406 1057.16 207.756 1058.33 208.456C1059.53 209.156 1060.46 210.14 1061.13 211.406C1061.83 212.64 1062.18 214.056 1062.18 215.656C1062.18 217.256 1061.83 218.673 1061.13 219.906C1060.46 221.14 1059.53 222.123 1058.33 222.856C1057.16 223.556 1055.83 223.906 1054.33 223.906C1052.83 223.906 1051.48 223.556 1050.28 222.856C1049.11 222.123 1048.18 221.14 1047.48 219.906C1046.81 218.673 1046.48 217.256 1046.48 215.656Z" fill="#333333"/>
<path d="M1072.27 216.656H1091.92C1091.96 216.456 1091.97 216.256 1091.97 216.056C1091.97 215.856 1091.97 215.656 1091.97 215.456C1091.97 213.023 1091.52 210.94 1090.62 209.206C1089.72 207.44 1088.46 206.073 1086.82 205.106C1085.19 204.14 1083.29 203.656 1081.12 203.656C1079.16 203.656 1077.37 204.056 1075.77 204.856C1074.21 205.656 1072.92 206.773 1071.92 208.206C1070.92 209.64 1070.26 211.306 1069.92 213.206C1069.86 213.606 1069.81 214.006 1069.77 214.406C1069.74 214.806 1069.72 215.223 1069.72 215.656C1069.72 217.956 1070.19 220.023 1071.12 221.856C1072.09 223.656 1073.39 225.073 1075.02 226.106C1076.69 227.14 1078.56 227.656 1080.62 227.656C1082.62 227.656 1084.29 227.423 1085.62 226.956C1086.96 226.456 1088.09 225.773 1089.02 224.906C1089.96 224.006 1090.81 222.973 1091.57 221.806L1088.32 219.756C1087.82 220.59 1087.22 221.323 1086.52 221.956C1085.82 222.556 1085.02 223.04 1084.12 223.406C1083.26 223.74 1082.26 223.906 1081.12 223.906C1079.62 223.906 1078.32 223.59 1077.22 222.956C1076.12 222.323 1075.27 221.39 1074.67 220.156C1074.07 218.923 1073.77 217.423 1073.77 215.656L1073.87 214.156C1073.87 212.723 1074.19 211.49 1074.82 210.456C1075.49 209.39 1076.37 208.573 1077.47 208.006C1078.57 207.44 1079.79 207.156 1081.12 207.156C1082.46 207.156 1083.57 207.423 1084.47 207.956C1085.41 208.456 1086.12 209.173 1086.62 210.106C1087.16 211.006 1087.49 212.056 1087.62 213.256H1072.27V216.656Z" fill="#333333"/>
<path d="M854.998 273.806V277.506H866.498L869.998 273.806H854.998ZM866.498 275.656C866.498 277.256 866.148 278.673 865.448 279.906C864.782 281.14 863.848 282.123 862.648 282.856C861.482 283.556 860.148 283.906 858.648 283.906C857.415 283.906 856.248 283.723 855.148 283.356C854.082 282.956 853.148 282.44 852.348 281.806C851.582 281.14 851.015 280.44 850.648 279.706V284.706C851.448 285.64 852.582 286.373 854.048 286.906C855.548 287.406 857.082 287.656 858.648 287.656C860.915 287.656 862.932 287.14 864.698 286.106C866.498 285.073 867.915 283.656 868.948 281.856C870.015 280.023 870.548 277.956 870.548 275.656C870.548 273.323 870.015 271.256 868.948 269.456C867.915 267.656 866.498 266.24 864.698 265.206C862.932 264.173 860.915 263.656 858.648 263.656C857.082 263.656 855.548 263.923 854.048 264.456C852.582 264.956 851.448 265.673 850.648 266.606V271.606C851.015 270.84 851.582 270.14 852.348 269.506C853.148 268.873 854.082 268.373 855.148 268.006C856.248 267.606 857.415 267.406 858.648 267.406C860.148 267.406 861.482 267.756 862.648 268.456C863.848 269.156 864.782 270.14 865.448 271.406C866.148 272.64 866.498 274.056 866.498 275.656Z" fill="#333333"/>
<path d="M895.925 264.156H876.175V279.156C876.175 280.79 875.809 281.923 875.075 282.556C874.375 283.19 873.525 283.506 872.525 283.506V287.156C874.259 287.156 875.692 286.873 876.825 286.306C877.959 285.706 878.792 284.823 879.325 283.656C879.892 282.456 880.175 280.956 880.175 279.156V267.906H891.925V287.156H895.925V264.156Z" fill="#333333"/>
<path d="M904.206 276.656H923.856C923.89 276.456 923.906 276.256 923.906 276.056C923.906 275.856 923.906 275.656 923.906 275.456C923.906 273.023 923.456 270.94 922.556 269.206C921.656 267.44 920.39 266.073 918.756 265.106C917.123 264.14 915.223 263.656 913.056 263.656C911.09 263.656 909.306 264.056 907.706 264.856C906.14 265.656 904.856 266.773 903.856 268.206C902.856 269.64 902.19 271.306 901.856 273.206C901.79 273.606 901.74 274.006 901.706 274.406C901.673 274.806 901.656 275.223 901.656 275.656C901.656 277.956 902.123 280.023 903.056 281.856C904.023 283.656 905.323 285.073 906.956 286.106C908.623 287.14 910.49 287.656 912.556 287.656C914.556 287.656 916.223 287.423 917.556 286.956C918.89 286.456 920.023 285.773 920.956 284.906C921.89 284.006 922.74 282.973 923.506 281.806L920.256 279.756C919.756 280.59 919.156 281.323 918.456 281.956C917.756 282.556 916.956 283.04 916.056 283.406C915.19 283.74 914.19 283.906 913.056 283.906C911.556 283.906 910.256 283.59 909.156 282.956C908.056 282.323 907.206 281.39 906.606 280.156C906.006 278.923 905.706 277.423 905.706 275.656L905.806 274.156C905.806 272.723 906.123 271.49 906.756 270.456C907.423 269.39 908.306 268.573 909.406 268.006C910.506 267.44 911.723 267.156 913.056 267.156C914.39 267.156 915.506 267.423 916.406 267.956C917.34 268.456 918.056 269.173 918.556 270.106C919.09 271.006 919.423 272.056 919.556 273.256H904.206V276.656Z" fill="#333333"/>
<path d="M929.139 264.156V287.156H933.139V264.156H929.139ZM941.639 264.156L931.639 273.656L942.639 287.156H947.639L936.639 273.656L946.639 264.156H941.639Z" fill="#333333"/>
<path d="M947.91 264.156V267.906H961.41V264.156H947.91ZM952.66 265.156V287.156H956.66V265.156H952.66Z" fill="#333333"/>
<path d="M969.174 298.156V264.156H965.174V298.156H969.174ZM988.424 275.656C988.424 273.156 987.907 271.023 986.874 269.256C985.84 267.456 984.457 266.073 982.724 265.106C981.024 264.14 979.124 263.656 977.024 263.656C975.591 263.656 974.274 263.94 973.074 264.506C971.907 265.04 970.89 265.823 970.024 266.856C969.19 267.89 968.54 269.156 968.074 270.656C967.607 272.123 967.374 273.79 967.374 275.656C967.374 277.523 967.607 279.206 968.074 280.706C968.54 282.173 969.19 283.423 970.024 284.456C970.89 285.49 971.907 286.29 973.074 286.856C974.274 287.39 975.591 287.656 977.024 287.656C979.124 287.656 981.024 287.173 982.724 286.206C984.457 285.24 985.84 283.856 986.874 282.056C987.907 280.256 988.424 278.123 988.424 275.656ZM984.374 275.656C984.374 277.423 984.007 278.923 983.274 280.156C982.574 281.39 981.624 282.323 980.424 282.956C979.257 283.59 977.957 283.906 976.524 283.906C975.657 283.906 974.79 283.723 973.924 283.356C973.057 282.99 972.257 282.456 971.524 281.756C970.824 281.056 970.257 280.206 969.824 279.206C969.39 278.173 969.174 276.99 969.174 275.656C969.174 274.323 969.39 273.156 969.824 272.156C970.257 271.123 970.824 270.256 971.524 269.556C972.257 268.856 973.057 268.323 973.924 267.956C974.79 267.59 975.657 267.406 976.524 267.406C977.957 267.406 979.257 267.723 980.424 268.356C981.624 268.99 982.574 269.923 983.274 271.156C984.007 272.39 984.374 273.89 984.374 275.656Z" fill="#333333"/>
<path d="M991.939 275.656C991.939 277.956 992.456 280.023 993.489 281.856C994.556 283.656 995.989 285.073 997.789 286.106C999.589 287.14 1001.61 287.656 1003.84 287.656C1006.11 287.656 1008.12 287.14 1009.89 286.106C1011.69 285.073 1013.11 283.656 1014.14 281.856C1015.21 280.023 1015.74 277.956 1015.74 275.656C1015.74 273.323 1015.21 271.256 1014.14 269.456C1013.11 267.656 1011.69 266.24 1009.89 265.206C1008.12 264.173 1006.11 263.656 1003.84 263.656C1001.61 263.656 999.589 264.173 997.789 265.206C995.989 266.24 994.556 267.656 993.489 269.456C992.456 271.256 991.939 273.323 991.939 275.656ZM995.989 275.656C995.989 274.056 996.323 272.64 996.989 271.406C997.689 270.14 998.623 269.156 999.789 268.456C1000.99 267.756 1002.34 267.406 1003.84 267.406C1005.34 267.406 1006.67 267.756 1007.84 268.456C1009.04 269.156 1009.97 270.14 1010.64 271.406C1011.34 272.64 1011.69 274.056 1011.69 275.656C1011.69 277.256 1011.34 278.673 1010.64 279.906C1009.97 281.14 1009.04 282.123 1007.84 282.856C1006.67 283.556 1005.34 283.906 1003.84 283.906C1002.34 283.906 1000.99 283.556 999.789 282.856C998.623 282.123 997.689 281.14 996.989 279.906C996.323 278.673 995.989 277.256 995.989 275.656Z" fill="#333333"/>
<path d="M1023.58 276.906H1040.58V273.156H1023.58V276.906ZM1037.98 264.156V287.156H1041.98V264.156H1037.98ZM1021.23 264.156V287.156H1025.23V264.156H1021.23Z" fill="#333333"/>
<path d="M1051.86 276.906H1068.86V273.156H1051.86V276.906ZM1066.26 264.156V287.156H1070.26V264.156H1066.26ZM1049.51 264.156V287.156H1053.51V264.156H1049.51Z" fill="#333333"/>
<path d="M1075.78 275.656C1075.78 277.956 1076.29 280.023 1077.33 281.856C1078.39 283.656 1079.83 285.073 1081.63 286.106C1083.43 287.14 1085.44 287.656 1087.68 287.656C1089.94 287.656 1091.96 287.14 1093.73 286.106C1095.53 285.073 1096.94 283.656 1097.98 281.856C1099.04 280.023 1099.58 277.956 1099.58 275.656C1099.58 273.323 1099.04 271.256 1097.98 269.456C1096.94 267.656 1095.53 266.24 1093.73 265.206C1091.96 264.173 1089.94 263.656 1087.68 263.656C1085.44 263.656 1083.43 264.173 1081.63 265.206C1079.83 266.24 1078.39 267.656 1077.33 269.456C1076.29 271.256 1075.78 273.323 1075.78 275.656ZM1079.83 275.656C1079.83 274.056 1080.16 272.64 1080.83 271.406C1081.53 270.14 1082.46 269.156 1083.63 268.456C1084.83 267.756 1086.18 267.406 1087.68 267.406C1089.18 267.406 1090.51 267.756 1091.68 268.456C1092.88 269.156 1093.81 270.14 1094.48 271.406C1095.18 272.64 1095.53 274.056 1095.53 275.656C1095.53 277.256 1095.18 278.673 1094.48 279.906C1093.81 281.14 1092.88 282.123 1091.68 282.856C1090.51 283.556 1089.18 283.906 1087.68 283.906C1086.18 283.906 1084.83 283.556 1083.63 282.856C1082.46 282.123 1081.53 281.14 1080.83 279.906C1080.16 278.673 1079.83 277.256 1079.83 275.656Z" fill="#333333"/>
<path d="M1105.62 276.656H1125.27C1125.31 276.456 1125.32 276.256 1125.32 276.056C1125.32 275.856 1125.32 275.656 1125.32 275.456C1125.32 273.023 1124.87 270.94 1123.97 269.206C1123.07 267.44 1121.81 266.073 1120.17 265.106C1118.54 264.14 1116.64 263.656 1114.47 263.656C1112.51 263.656 1110.72 264.056 1109.12 264.856C1107.56 265.656 1106.27 266.773 1105.27 268.206C1104.27 269.64 1103.61 271.306 1103.27 273.206C1103.21 273.606 1103.16 274.006 1103.12 274.406C1103.09 274.806 1103.07 275.223 1103.07 275.656C1103.07 277.956 1103.54 280.023 1104.47 281.856C1105.44 283.656 1106.74 285.073 1108.37 286.106C1110.04 287.14 1111.91 287.656 1113.97 287.656C1115.97 287.656 1117.64 287.423 1118.97 286.956C1120.31 286.456 1121.44 285.773 1122.37 284.906C1123.31 284.006 1124.16 282.973 1124.92 281.806L1121.67 279.756C1121.17 280.59 1120.57 281.323 1119.87 281.956C1119.17 282.556 1118.37 283.04 1117.47 283.406C1116.61 283.74 1115.61 283.906 1114.47 283.906C1112.97 283.906 1111.67 283.59 1110.57 282.956C1109.47 282.323 1108.62 281.39 1108.02 280.156C1107.42 278.923 1107.12 277.423 1107.12 275.656L1107.22 274.156C1107.22 272.723 1107.54 271.49 1108.17 270.456C1108.84 269.39 1109.72 268.573 1110.82 268.006C1111.92 267.44 1113.14 267.156 1114.47 267.156C1115.81 267.156 1116.92 267.423 1117.82 267.956C1118.76 268.456 1119.47 269.173 1119.97 270.106C1120.51 271.006 1120.84 272.056 1120.97 273.256H1105.62V276.656Z" fill="#333333"/>
<path d="M849.898 335.656C849.898 337.956 850.415 340.023 851.448 341.856C852.515 343.656 853.948 345.073 855.748 346.106C857.548 347.14 859.565 347.656 861.798 347.656C864.065 347.656 866.082 347.14 867.848 346.106C869.648 345.073 871.065 343.656 872.098 341.856C873.165 340.023 873.698 337.956 873.698 335.656C873.698 333.323 873.165 331.256 872.098 329.456C871.065 327.656 869.648 326.24 867.848 325.206C866.082 324.173 864.065 323.656 861.798 323.656C859.565 323.656 857.548 324.173 855.748 325.206C853.948 326.24 852.515 327.656 851.448 329.456C850.415 331.256 849.898 333.323 849.898 335.656ZM853.948 335.656C853.948 334.056 854.282 332.64 854.948 331.406C855.648 330.14 856.582 329.156 857.748 328.456C858.948 327.756 860.298 327.406 861.798 327.406C863.298 327.406 864.632 327.756 865.798 328.456C866.998 329.156 867.932 330.14 868.598 331.406C869.298 332.64 869.648 334.056 869.648 335.656C869.648 337.256 869.298 338.673 868.598 339.906C867.932 341.14 866.998 342.123 865.798 342.856C864.632 343.556 863.298 343.906 861.798 343.906C860.298 343.906 858.948 343.556 857.748 342.856C856.582 342.123 855.648 341.14 854.948 339.906C854.282 338.673 853.948 337.256 853.948 335.656Z" fill="#333333"/>
<path d="M889.093 327.406C890.593 327.406 891.927 327.756 893.093 328.456C894.293 329.156 895.227 330.14 895.893 331.406C896.593 332.64 896.943 334.056 896.943 335.656C896.943 337.256 896.593 338.673 895.893 339.906C895.227 341.14 894.293 342.123 893.093 342.856C891.927 343.556 890.593 343.906 889.093 343.906C887.593 343.906 886.243 343.556 885.043 342.856C883.877 342.123 882.943 341.14 882.243 339.906C881.543 338.673 881.193 337.256 881.193 335.656L877.193 332.656C877.193 335.956 877.71 338.723 878.743 340.956C879.81 343.19 881.243 344.873 883.043 346.006C884.843 347.106 886.86 347.656 889.093 347.656C891.36 347.656 893.377 347.14 895.143 346.106C896.943 345.073 898.36 343.656 899.393 341.856C900.46 340.023 900.993 337.956 900.993 335.656C900.993 333.323 900.46 331.256 899.393 329.456C898.36 327.656 896.943 326.24 895.143 325.206C893.377 324.173 891.36 323.656 889.093 323.656V327.406ZM879.393 335.656H881.193C881.193 334.323 881.427 333.156 881.893 332.156C882.393 331.123 883.027 330.256 883.793 329.556C884.593 328.856 885.46 328.323 886.393 327.956C887.327 327.59 888.227 327.406 889.093 327.406V323.656C887.66 323.656 886.343 323.94 885.143 324.506C883.977 325.04 882.96 325.823 882.093 326.856C881.227 327.89 880.56 329.156 880.093 330.656C879.627 332.123 879.393 333.79 879.393 335.656ZM877.193 332.656L880.693 335.306V330.156C880.693 328.89 880.81 327.623 881.043 326.356C881.277 325.09 881.677 323.89 882.243 322.756C882.843 321.623 883.643 320.606 884.643 319.706C885.677 318.806 886.977 318.106 888.543 317.606C890.377 317.006 892.01 316.256 893.443 315.356C894.91 314.456 896.093 313.406 896.993 312.206C897.893 310.973 898.427 309.623 898.593 308.156H894.643C894.41 309.356 893.727 310.506 892.593 311.606C891.493 312.673 889.81 313.59 887.543 314.356C885.543 315.056 883.877 315.973 882.543 317.106C881.21 318.206 880.143 319.523 879.343 321.056C878.577 322.59 878.027 324.323 877.693 326.256C877.36 328.19 877.193 330.323 877.193 332.656Z" fill="#333333"/>
<path d="M910.238 358.156V324.156H906.238V358.156H910.238ZM929.488 335.656C929.488 333.156 928.972 331.023 927.938 329.256C926.905 327.456 925.522 326.073 923.788 325.106C922.088 324.14 920.188 323.656 918.088 323.656C916.655 323.656 915.338 323.94 914.138 324.506C912.972 325.04 911.955 325.823 911.088 326.856C910.255 327.89 909.605 329.156 909.138 330.656C908.672 332.123 908.438 333.79 908.438 335.656C908.438 337.523 908.672 339.206 909.138 340.706C909.605 342.173 910.255 343.423 911.088 344.456C911.955 345.49 912.972 346.29 914.138 346.856C915.338 347.39 916.655 347.656 918.088 347.656C920.188 347.656 922.088 347.173 923.788 346.206C925.522 345.24 926.905 343.856 927.938 342.056C928.972 340.256 929.488 338.123 929.488 335.656ZM925.438 335.656C925.438 337.423 925.072 338.923 924.338 340.156C923.638 341.39 922.688 342.323 921.488 342.956C920.322 343.59 919.022 343.906 917.588 343.906C916.722 343.906 915.855 343.723 914.988 343.356C914.122 342.99 913.322 342.456 912.588 341.756C911.888 341.056 911.322 340.206 910.888 339.206C910.455 338.173 910.238 336.99 910.238 335.656C910.238 334.323 910.455 333.156 910.888 332.156C911.322 331.123 911.888 330.256 912.588 329.556C913.322 328.856 914.122 328.323 914.988 327.956C915.855 327.59 916.722 327.406 917.588 327.406C919.022 327.406 920.322 327.723 921.488 328.356C922.688 328.99 923.638 329.923 924.338 331.156C925.072 332.39 925.438 333.89 925.438 335.656Z" fill="#333333"/>
<path d="M936.804 340.406C936.804 339.473 937.021 338.673 937.454 338.006C937.887 337.34 938.537 336.823 939.404 336.456C940.304 336.09 941.421 335.906 942.754 335.906C944.221 335.906 945.537 336.106 946.704 336.506C947.871 336.873 949.021 337.456 950.154 338.256V335.906C949.921 335.606 949.487 335.223 948.854 334.756C948.221 334.256 947.371 333.823 946.304 333.456C945.271 333.056 944.021 332.856 942.554 332.856C940.554 332.856 938.821 333.173 937.354 333.806C935.887 334.406 934.754 335.273 933.954 336.406C933.154 337.54 932.754 338.923 932.754 340.556C932.754 342.123 933.104 343.44 933.804 344.506C934.537 345.54 935.504 346.323 936.704 346.856C937.904 347.39 939.221 347.656 940.654 347.656C942.254 347.656 943.704 347.39 945.004 346.856C946.304 346.29 947.337 345.49 948.104 344.456C948.904 343.39 949.304 342.123 949.304 340.656L948.504 338.156C948.504 339.59 948.204 340.74 947.604 341.606C947.037 342.473 946.237 343.106 945.204 343.506C944.171 343.906 942.987 344.106 941.654 344.106C940.754 344.106 939.937 343.973 939.204 343.706C938.471 343.406 937.887 342.99 937.454 342.456C937.021 341.89 936.804 341.206 936.804 340.406ZM936.804 329.556C937.171 329.29 937.671 328.973 938.304 328.606C938.971 328.206 939.754 327.873 940.654 327.606C941.554 327.306 942.554 327.156 943.654 327.156C944.487 327.156 945.271 327.29 946.004 327.556C946.737 327.823 947.337 328.223 947.804 328.756C948.271 329.256 948.504 329.89 948.504 330.656V347.156H952.504V330.656C952.504 329.556 952.287 328.573 951.854 327.706C951.421 326.84 950.804 326.106 950.004 325.506C949.237 324.906 948.304 324.456 947.204 324.156C946.137 323.823 944.954 323.656 943.654 323.656C941.587 323.656 939.821 323.973 938.354 324.606C936.887 325.24 935.721 325.873 934.854 326.506L936.804 329.556Z" fill="#333333"/>
<path d="M967.421 335.656C969.188 335.656 970.688 335.406 971.921 334.906C973.188 334.406 974.155 333.723 974.821 332.856C975.488 331.956 975.821 330.956 975.821 329.856C975.821 328.723 975.471 327.69 974.771 326.756C974.105 325.823 973.171 325.073 971.971 324.506C970.771 323.94 969.421 323.656 967.921 323.656C966.321 323.656 964.888 323.99 963.621 324.656C962.355 325.29 961.355 326.156 960.621 327.256C959.888 328.356 959.521 329.556 959.521 330.856H963.571C963.571 330.323 963.721 329.79 964.021 329.256C964.321 328.69 964.788 328.223 965.421 327.856C966.088 327.456 966.921 327.256 967.921 327.256C968.721 327.256 969.405 327.373 969.971 327.606C970.538 327.84 970.971 328.173 971.271 328.606C971.571 329.04 971.721 329.556 971.721 330.156C971.721 330.99 971.388 331.706 970.721 332.306C970.055 332.873 968.955 333.156 967.421 333.156V335.656ZM967.821 347.656C969.455 347.656 970.955 347.373 972.321 346.806C973.688 346.206 974.771 345.373 975.571 344.306C976.405 343.206 976.821 341.906 976.821 340.406C976.821 338.973 976.438 337.806 975.671 336.906C974.905 335.973 973.805 335.29 972.371 334.856C970.971 334.39 969.321 334.156 967.421 334.156V336.656C968.588 336.656 969.571 336.806 970.371 337.106C971.205 337.406 971.821 337.84 972.221 338.406C972.655 338.973 972.871 339.656 972.871 340.456C972.871 341.19 972.671 341.84 972.271 342.406C971.871 342.973 971.288 343.406 970.521 343.706C969.788 344.006 968.888 344.156 967.821 344.156C966.088 344.156 964.838 343.723 964.071 342.856C963.305 341.99 962.805 341.006 962.571 339.906H958.521C958.788 342.14 959.721 343.99 961.321 345.456C962.955 346.923 965.121 347.656 967.821 347.656Z" fill="#333333"/>
<path d="M980.807 335.656C980.807 337.956 981.323 340.023 982.357 341.856C983.423 343.656 984.857 345.073 986.657 346.106C988.457 347.14 990.473 347.656 992.707 347.656C994.973 347.656 996.99 347.14 998.757 346.106C1000.56 345.073 1001.97 343.656 1003.01 341.856C1004.07 340.023 1004.61 337.956 1004.61 335.656C1004.61 333.323 1004.07 331.256 1003.01 329.456C1001.97 327.656 1000.56 326.24 998.757 325.206C996.99 324.173 994.973 323.656 992.707 323.656C990.473 323.656 988.457 324.173 986.657 325.206C984.857 326.24 983.423 327.656 982.357 329.456C981.323 331.256 980.807 333.323 980.807 335.656ZM984.857 335.656C984.857 334.056 985.19 332.64 985.857 331.406C986.557 330.14 987.49 329.156 988.657 328.456C989.857 327.756 991.207 327.406 992.707 327.406C994.207 327.406 995.54 327.756 996.707 328.456C997.907 329.156 998.84 330.14 999.507 331.406C1000.21 332.64 1000.56 334.056 1000.56 335.656C1000.56 337.256 1000.21 338.673 999.507 339.906C998.84 341.14 997.907 342.123 996.707 342.856C995.54 343.556 994.207 343.906 992.707 343.906C991.207 343.906 989.857 343.556 988.657 342.856C987.49 342.123 986.557 341.14 985.857 339.906C985.19 338.673 984.857 337.256 984.857 335.656Z" fill="#333333"/>
<path d="M1012.45 335.156V337.256H1019.1C1019.87 337.256 1020.52 337.34 1021.05 337.506C1021.62 337.64 1022.07 337.856 1022.4 338.156C1022.77 338.456 1023.03 338.79 1023.2 339.156C1023.4 339.523 1023.5 339.94 1023.5 340.406C1023.5 341.306 1023.13 342.073 1022.4 342.706C1021.7 343.34 1020.6 343.656 1019.1 343.656H1012.45V347.156H1020.1C1022.73 347.156 1024.62 346.556 1025.75 345.356C1026.92 344.123 1027.5 342.64 1027.5 340.906C1027.5 339.406 1027.13 338.24 1026.4 337.406C1025.67 336.573 1024.67 335.99 1023.4 335.656C1022.13 335.323 1020.7 335.156 1019.1 335.156H1012.45ZM1012.45 336.156H1018.6C1020.03 336.156 1021.33 335.956 1022.5 335.556C1023.7 335.123 1024.67 334.49 1025.4 333.656C1026.13 332.79 1026.5 331.706 1026.5 330.406C1026.5 328.906 1026.13 327.706 1025.4 326.806C1024.67 325.873 1023.7 325.206 1022.5 324.806C1021.33 324.373 1020.03 324.156 1018.6 324.156H1012.45V327.656H1018.6C1019.4 327.656 1020.08 327.79 1020.65 328.056C1021.25 328.29 1021.7 328.64 1022 329.106C1022.33 329.54 1022.5 330.056 1022.5 330.656C1022.5 331.09 1022.4 331.506 1022.2 331.906C1022.03 332.273 1021.78 332.606 1021.45 332.906C1021.12 333.206 1020.7 333.44 1020.2 333.606C1019.73 333.74 1019.2 333.806 1018.6 333.806H1012.45V336.156ZM1010.1 324.156V347.156H1014.1V324.156H1010.1Z" fill="#333333"/>
<path d="M1034.56 340.406C1034.56 339.473 1034.77 338.673 1035.21 338.006C1035.64 337.34 1036.29 336.823 1037.16 336.456C1038.06 336.09 1039.17 335.906 1040.51 335.906C1041.97 335.906 1043.29 336.106 1044.46 336.506C1045.62 336.873 1046.77 337.456 1047.91 338.256V335.906C1047.67 335.606 1047.24 335.223 1046.61 334.756C1045.97 334.256 1045.12 333.823 1044.06 333.456C1043.02 333.056 1041.77 332.856 1040.31 332.856C1038.31 332.856 1036.57 333.173 1035.11 333.806C1033.64 334.406 1032.51 335.273 1031.71 336.406C1030.91 337.54 1030.51 338.923 1030.51 340.556C1030.51 342.123 1030.86 343.44 1031.56 344.506C1032.29 345.54 1033.26 346.323 1034.46 346.856C1035.66 347.39 1036.97 347.656 1038.41 347.656C1040.01 347.656 1041.46 347.39 1042.76 346.856C1044.06 346.29 1045.09 345.49 1045.86 344.456C1046.66 343.39 1047.06 342.123 1047.06 340.656L1046.26 338.156C1046.26 339.59 1045.96 340.74 1045.36 341.606C1044.79 342.473 1043.99 343.106 1042.96 343.506C1041.92 343.906 1040.74 344.106 1039.41 344.106C1038.51 344.106 1037.69 343.973 1036.96 343.706C1036.22 343.406 1035.64 342.99 1035.21 342.456C1034.77 341.89 1034.56 341.206 1034.56 340.406ZM1034.56 329.556C1034.92 329.29 1035.42 328.973 1036.06 328.606C1036.72 328.206 1037.51 327.873 1038.41 327.606C1039.31 327.306 1040.31 327.156 1041.41 327.156C1042.24 327.156 1043.02 327.29 1043.76 327.556C1044.49 327.823 1045.09 328.223 1045.56 328.756C1046.02 329.256 1046.26 329.89 1046.26 330.656V347.156H1050.26V330.656C1050.26 329.556 1050.04 328.573 1049.61 327.706C1049.17 326.84 1048.56 326.106 1047.76 325.506C1046.99 324.906 1046.06 324.456 1044.96 324.156C1043.89 323.823 1042.71 323.656 1041.41 323.656C1039.34 323.656 1037.57 323.973 1036.11 324.606C1034.64 325.24 1033.47 325.873 1032.61 326.506L1034.56 329.556Z" fill="#333333"/>
<path d="M1059.38 336.906H1076.38V333.156H1059.38V336.906ZM1073.78 324.156V347.156H1077.78V324.156H1073.78ZM1057.03 324.156V347.156H1061.03V324.156H1057.03Z" fill="#333333"/>
<path d="M1104.55 328.156L1104.8 322.406L1085.8 343.156L1085.55 348.906L1104.55 328.156ZM1089.55 324.156H1085.55V348.906L1089.55 343.406V324.156ZM1104.8 322.406L1100.8 327.906V347.156H1104.8V322.406Z" fill="#333333"/>
<path d="M1113.09 336.656H1132.74C1132.78 336.456 1132.79 336.256 1132.79 336.056C1132.79 335.856 1132.79 335.656 1132.79 335.456C1132.79 333.023 1132.34 330.94 1131.44 329.206C1130.54 327.44 1129.28 326.073 1127.64 325.106C1126.01 324.14 1124.11 323.656 1121.94 323.656C1119.98 323.656 1118.19 324.056 1116.59 324.856C1115.03 325.656 1113.74 326.773 1112.74 328.206C1111.74 329.64 1111.08 331.306 1110.74 333.206C1110.68 333.606 1110.63 334.006 1110.59 334.406C1110.56 334.806 1110.54 335.223 1110.54 335.656C1110.54 337.956 1111.01 340.023 1111.94 341.856C1112.91 343.656 1114.21 345.073 1115.84 346.106C1117.51 347.14 1119.38 347.656 1121.44 347.656C1123.44 347.656 1125.11 347.423 1126.44 346.956C1127.78 346.456 1128.91 345.773 1129.84 344.906C1130.78 344.006 1131.63 342.973 1132.39 341.806L1129.14 339.756C1128.64 340.59 1128.04 341.323 1127.34 341.956C1126.64 342.556 1125.84 343.04 1124.94 343.406C1124.08 343.74 1123.08 343.906 1121.94 343.906C1120.44 343.906 1119.14 343.59 1118.04 342.956C1116.94 342.323 1116.09 341.39 1115.49 340.156C1114.89 338.923 1114.59 337.423 1114.59 335.656L1114.69 334.156C1114.69 332.723 1115.01 331.49 1115.64 330.456C1116.31 329.39 1117.19 328.573 1118.29 328.006C1119.39 327.44 1120.61 327.156 1121.94 327.156C1123.28 327.156 1124.39 327.423 1125.29 327.956C1126.23 328.456 1126.94 329.173 1127.44 330.106C1127.98 331.006 1128.31 332.056 1128.44 333.256H1113.09V336.656Z" fill="#333333"/>
<path fill-rule="evenodd" clip-rule="evenodd" d="M212.552 0.735771C174.387 -4.30394 137.6 16.9353 122.882 52.5069L84.0423 146.378C82.8693 149.213 81.3288 151.881 79.4603 154.314L17.5852 234.886C-5.86174 265.418 -5.86173 307.897 17.5852 338.428L79.4603 419C81.3288 421.433 82.8693 424.102 84.0423 426.936L122.882 520.808C137.6 556.379 174.387 577.619 212.552 572.579L313.267 559.279C316.308 558.878 319.389 558.878 322.431 559.279L423.146 572.579C461.311 577.619 498.098 556.379 512.816 520.808L551.656 426.936C552.828 424.102 554.369 421.433 556.238 419L594.734 368.872C585.858 375.367 576.032 380.6 565.402 384.643C565.337 384.667 565.272 384.692 565.206 384.716C550.18 390.298 534.117 392.906 517.305 392.906C516.024 392.906 514.747 392.892 513.476 392.864C510.312 397.566 507.624 402.576 505.454 407.82L466.614 501.692C460.554 516.339 445.406 525.084 429.691 523.009L328.977 509.71C321.59 508.734 314.108 508.734 306.721 509.71L206.006 523.009C190.292 525.084 175.144 516.339 169.083 501.692L130.244 407.82C127.395 400.936 123.654 394.456 119.116 388.547L57.241 307.975C47.5863 295.403 47.5863 277.912 57.241 265.34L119.116 184.768C123.654 178.859 127.395 172.379 130.244 165.494L169.083 71.623C175.144 56.9758 190.291 48.2303 206.006 50.3054L306.721 63.6049C314.108 64.5803 321.59 64.5803 328.977 63.6049L429.691 50.3055C445.406 48.2303 460.554 56.9758 466.614 71.623L501.896 156.894C506.92 156.385 512.071 156.156 517.305 156.156C533.553 156.156 549.107 158.67 563.697 164.028L556.238 154.314C554.369 151.881 552.828 149.213 551.656 146.378L512.816 52.5069C498.098 16.9353 461.311 -4.30394 423.146 0.735782L322.431 14.0352C319.389 14.4369 316.308 14.4369 313.267 14.0352L212.552 0.735771ZM631.534 260.357C630.914 264.968 630.604 269.735 630.604 274.656C630.604 284.521 631.806 293.809 634.209 302.517C636.861 288.521 635.97 274 631.534 260.357ZM534.913 364.676L578.457 307.975C588.111 295.403 588.111 277.912 578.457 265.34L516.582 184.768C516.176 184.239 515.776 183.706 515.383 183.168C516.018 183.16 516.659 183.156 517.305 183.156C531.305 183.156 544.139 185.406 555.805 189.906C567.639 194.239 577.805 200.406 586.305 208.406C594.972 216.406 601.639 226.073 606.305 237.406C606.861 238.691 607.386 239.992 607.878 241.31C611.663 251.447 613.555 262.562 613.555 274.656C613.555 286.812 611.643 298.046 607.819 308.356C607.344 309.637 606.839 310.903 606.305 312.156C601.639 323.323 594.972 332.906 586.305 340.906C577.805 348.739 567.639 354.906 555.805 359.406C549.214 361.854 542.25 363.611 534.913 364.676Z" fill="url(#paint0_linear_79_1012)"/>
<path d="M287.9 273.156L335.65 345.906L383.4 273.156L394.15 362.156H438.9L410.15 178.406L335.65 284.906L260.9 178.406L232.9 362.156H277.15L287.9 273.156Z" fill="#333333"/>
<path d="M481.057 291.906H574.557V257.406H481.057V291.906ZM571.807 274.656C571.807 282.656 570.223 289.906 567.057 296.406C563.89 302.906 559.557 308.49 554.057 313.156C548.557 317.656 542.39 321.156 535.557 323.656C528.723 326.156 521.807 327.406 514.807 327.406C506.64 327.406 499.223 326.406 492.557 324.406C485.89 322.24 480.057 319.656 475.057 316.656C470.223 313.49 466.223 310.406 463.057 307.406V348.656C469.89 353.823 477.473 357.99 485.807 361.156C494.14 364.323 504.64 365.906 517.307 365.906C531.307 365.906 544.14 363.74 555.807 359.406C567.64 354.906 577.807 348.74 586.307 340.906C594.973 332.906 601.64 323.323 606.307 312.156C611.14 300.823 613.557 288.323 613.557 274.656C613.557 260.99 611.14 248.573 606.307 237.406C601.64 226.073 594.973 216.406 586.307 208.406C577.807 200.406 567.64 194.24 555.807 189.906C544.14 185.406 531.307 183.156 517.307 183.156C504.64 183.156 494.14 184.74 485.807 187.906C477.473 190.906 469.89 195.156 463.057 200.656V241.906C466.223 238.74 470.223 235.656 475.057 232.656C480.057 229.656 485.89 227.156 492.557 225.156C499.223 222.99 506.64 221.906 514.807 221.906C521.807 221.906 528.723 223.156 535.557 225.656C542.39 228.156 548.557 231.74 554.057 236.406C559.557 240.906 563.89 246.406 567.057 252.906C570.223 259.406 571.807 266.656 571.807 274.656Z" fill="#333333"/>
<path d="M675.105 274.656C675.105 266.823 676.272 259.74 678.605 253.406C680.939 247.073 684.272 241.573 688.605 236.906C693.105 232.24 698.355 228.573 704.355 225.906C710.522 223.24 717.355 221.906 724.855 221.906C732.355 221.906 739.105 223.24 745.105 225.906C751.272 228.573 756.522 232.24 760.855 236.906C765.189 241.573 768.439 247.156 770.605 253.656C772.772 259.99 773.855 266.99 773.855 274.656C773.855 282.323 772.689 289.406 770.355 295.906C768.022 302.24 764.689 307.74 760.355 312.406C756.022 317.073 750.855 320.74 744.855 323.406C738.855 326.073 732.189 327.406 724.855 327.406C717.355 327.406 710.522 326.073 704.355 323.406C698.355 320.74 693.105 317.073 688.605 312.406C684.272 307.74 680.939 302.156 678.605 295.656C676.272 289.156 675.105 282.156 675.105 274.656ZM630.605 274.656C630.605 288.156 632.855 300.573 637.355 311.906C641.855 323.24 648.355 333.073 656.855 341.406C665.355 349.74 675.355 356.24 686.855 360.906C698.355 365.406 711.022 367.656 724.855 367.656C738.522 367.656 751.022 365.406 762.355 360.906C773.855 356.24 783.855 349.74 792.355 341.406C800.855 333.073 807.439 323.24 812.105 311.906C816.772 300.573 819.105 288.156 819.105 274.656C819.105 261.156 816.689 248.823 811.855 237.656C807.022 226.323 800.355 216.573 791.855 208.406C783.522 200.24 773.605 193.99 762.105 189.656C750.772 185.323 738.355 183.156 724.855 183.156C711.355 183.156 698.855 185.323 687.355 189.656C675.855 193.99 665.855 200.24 657.355 208.406C648.855 216.573 642.272 226.323 637.605 237.656C632.939 248.823 630.605 261.156 630.605 274.656Z" fill="#333333"/>
<defs>
<linearGradient id="paint0_linear_79_1012" x1="723.424" y1="-83.7523" x2="-118.254" y2="661.681" gradientUnits="userSpaceOnUse">
<stop offset="0.226208" stop-color="#474EF8"/>
<stop offset="0.394047" stop-color="#6DCDFF"/>
<stop offset="0.589968" stop-color="#74BC5B"/>
<stop offset="0.75012" stop-color="#F8D047"/>
</linearGradient>
</defs>
</svg>
